mtllib ./platform_05.mtl
g pb-Cube-51986
v -14 0 11
v -17 0 11
v -14 0.5 11
v -17 0.5 11
v -17 0 -3
v -14 0 -3
v -17 0.5 -3
v -14 0.5 -3
v -14 0 -3
v -17 0 -3
v -14.5 -0.75 -2.25
v -16.5 -0.75 -2.25
v -17 0 11
v -14 0 11
v -16.5 -0.75 10.25
v -14.5 -0.75 10.25
v -17 0 -3
v -17 0.5 -3
v -17.25 0.5 -1.5
v -17.25 0 -1.5
v -14 0.5 -3
v -17 0.5 -3
v -17.25 0.5 -1.5
v -13.75 0.5 -1.5
v -17 0 -3
v -16.5 -0.75 -2.25
v -17.25 0 -1.5
v -16.75 -0.75 -1.5
v -14.5 -0.75 -2.25
v -16.5 -0.75 -2.25
v -16.75 -0.75 -1.5
v -14.25 -0.75 -1.5
v -14 0 -3
v -14.5 -0.75 -2.25
v -14.25 -0.75 -1.5
v -13.75 0 -1.5
v -14 0 -3
v -14 0.5 -3
v -13.75 0 -1.5
v -13.75 0.5 -1.5
v -17 0.5 11
v -17 0 11
v -17.25 0.5 9.75
v -17.25 0 9.75
v -14 0.5 11
v -17 0.5 11
v -17.25 0.5 9.75
v -13.75 0.5 9.75
v -17 0 11
v -16.5 -0.75 10.25
v -17.25 0 9.75
v -16.75 -0.75 9.25
v -16.5 -0.75 10.25
v -14.5 -0.75 10.25
v -16.75 -0.75 9.25
v -14.25 -0.75 9.25
v -14.5 -0.75 10.25
v -14 0 11
v -14.25 -0.75 9.25
v -13.75 0 9.75
v -14 0 11
v -14 0.5 11
v -13.75 0 9.75
v -13.75 0.5 9.75
v -17.25 0 9.75
v -17.25 0.5 9.75
v -19 0.5 8.5
v -19 0 8.5
v -13.75 0.5 9.75
v -17.25 0.5 9.75
v -19 0.5 8.5
v -12 0.5 8.5
v -16.75 -0.75 9.25
v -17.25 0 9.75
v -19 0 8.5
v -18.5 -0.75 8.25
v -14.25 -0.75 9.25
v -16.75 -0.75 9.25
v -18.5 -0.75 8.25
v -12.5 -0.75 8.25
v -14.25 -0.75 9.25
v -13.75 0 9.75
v -12.5 -0.75 8.25
v -12 0 8.5
v -13.75 0.5 9.75
v -13.75 0 9.75
v -12 0 8.5
v -12 0.5 8.5
v -17.25 0 -1.5
v -17.25 0.5 -1.5
v -19 0.5 -0.25
v -19 0 -0.25
v -17.25 0.5 -1.5
v -13.75 0.5 -1.5
v -19 0.5 -0.25
v -12 0.5 -0.25
v -16.75 -0.75 -1.5
v -17.25 0 -1.5
v -19 0 -0.25
v -18.5 -0.75 -0.5
v -14.25 -0.75 -1.5
v -16.75 -0.75 -1.5
v -18.5 -0.75 -0.5
v -12.5 -0.75 -0.5
v -13.75 0 -1.5
v -14.25 -0.75 -1.5
v -12.5 -0.75 -0.5
v -12 0 -0.25
v -13.75 0.5 -1.5
v -13.75 0 -1.5
v -12 0 -0.25
v -12 0.5 -0.25
v -19 0 -0.25
v -19 0.5 -0.25
v -19 0.5 2.5
v -19 0 2.5
v -12 0.5 -0.25
v -19 0.5 -0.25
v -19 0.5 2.5
v -11 0.5 2.5
v -19 0 -0.25
v -18.5 -0.75 -0.5
v -19 0 2.5
v -18.5 -0.75 2.25
v -12.5 -0.75 -0.5
v -18.5 -0.75 -0.5
v -18.5 -0.75 2.25
v -11.5 -0.75 2.25
v -12 0 -0.25
v -12.5 -0.75 -0.5
v -11.5 -0.75 2.25
v -11 0 2.5
v -12 0.5 -0.25
v -12 0 -0.25
v -11 0 2.5
v -11 0.5 2.5
v -19 0 2.5
v -19 0.5 2.5
v -20 0.5 6
v -20 0 6
v -19 0.5 8.5
v -19 0 8.5
v -20 0.5 6
v -20 0 6
v -12 0.5 8.5
v -19 0.5 8.5
v -20 0.5 6
v -12 0.5 6
v -11 0.5 2.5
v -19 0.5 2.5
v -20 0.5 6
v -12 0.5 6
v -19 0 2.5
v -18.5 -0.75 2.25
v -20 0 6
v -19.5 -0.75 5.75
v -19 0 8.5
v -18.5 -0.75 8.25
v -20 0 6
v -19.5 -0.75 5.75
v -11.5 -0.75 2.25
v -18.5 -0.75 2.25
v -19.5 -0.75 5.75
v -12.5 -0.75 5.75
v -18.5 -0.75 8.25
v -12.5 -0.75 8.25
v -19.5 -0.75 5.75
v -12.5 -0.75 5.75
v -11 0 2.5
v -11.5 -0.75 2.25
v -12.5 -0.75 5.75
v -12 0 6
v -12.5 -0.75 8.25
v -12 0 8.5
v -12.5 -0.75 5.75
v -12 0 6
v -11 0.5 2.5
v -11 0 2.5
v -12 0 6
v -12 0.5 6
v -12 0 8.5
v -12 0.5 8.5
v -12 0 6
v -12 0.5 6

vn 0 0 1
vn 0 0 1
vn 0 0 1
vn 0 0 1
vn 0 0 -1
vn 0 0 -1
vn 0 0 -1
vn 0 0 -1
vn 0 -0.7071067 -0.7071067
vn 0 -0.7071068 -0.7071068
vn 0 -0.7071068 -0.7071068
vn 0 -0.7071068 -0.7071068
vn 0 -0.7071067 0.7071067
vn 0 -0.7071068 0.7071068
vn 0 -0.7071068 0.7071068
vn 0 -0.7071068 0.7071068
vn -0.9863939 0 -0.164399
vn -0.9863939 0 -0.164399
vn -0.9863939 0 -0.164399
vn -0.9863939 0 -0.164399
vn 0 1 0
vn 0 1 0
vn 0 1 0
vn 0 1 0
vn -0.7620007 -0.6350006 -0.1270001
vn -0.7774816 -0.6047079 -0.1727737
vn -0.7774816 -0.6047079 -0.1727737
vn -0.8017837 -0.5345225 -0.2672613
vn 0 -1 0
vn 0 -1 0
vn 0 -1 0
vn 0 -1 0
vn 0.7620007 -0.6350006 -0.1270001
vn 0.7774816 -0.6047079 -0.1727737
vn 0.8017837 -0.5345225 -0.2672613
vn 0.7774816 -0.6047079 -0.1727737
vn 0.9863939 0 -0.164399
vn 0.9863939 0 -0.164399
vn 0.9863939 0 -0.164399
vn 0.9863939 0 -0.164399
vn -0.9805807 0 0.1961161
vn -0.9805807 0 0.1961161
vn -0.9805807 0 0.1961161
vn -0.9805807 0 0.1961161
vn 0 1 0
vn 0 1 0
vn 0 1 0
vn 0 1 0
vn -0.7472032 -0.6475762 0.1494406
vn -0.7505794 -0.6393825 0.1667954
vn -0.7505794 -0.6393825 0.1667954
vn -0.7544335 -0.6286946 0.1886084
vn 0 -1 0
vn 0 -1 0
vn 0 -1 0
vn 0 -1 0
vn 0.7505794 -0.6393825 0.1667954
vn 0.7472032 -0.6475762 0.1494406
vn 0.7544335 -0.6286946 0.1886084
vn 0.7505794 -0.6393825 0.1667954
vn 0.9805807 0 0.1961161
vn 0.9805807 0 0.1961161
vn 0.9805807 0 0.1961161
vn 0.9805807 0 0.1961161
vn -0.5812382 0 0.8137335
vn -0.5812382 0 0.8137335
vn -0.5812382 0 0.8137335
vn -0.5812382 0 0.8137335
vn 0 1 0
vn 0 1 0
vn 0 1 0
vn 0 1 0
vn -0.4261623 -0.6155678 0.6629192
vn -0.4256283 -0.6810052 0.5958796
vn -0.4261623 -0.6155678 0.6629192
vn -0.4216371 -0.5270463 0.7378649
vn 0 -1 0
vn 0 -1 0
vn 0 -1 0
vn 0 -1 0
vn 0.4261623 -0.6155678 0.6629192
vn 0.4256283 -0.6810052 0.5958796
vn 0.4216371 -0.5270463 0.7378649
vn 0.4261623 -0.6155678 0.6629192
vn 0.5812382 0 0.8137335
vn 0.5812382 0 0.8137335
vn 0.5812382 0 0.8137335
vn 0.5812382 0 0.8137335
vn -0.5812382 0 -0.8137335
vn -0.5812382 0 -0.8137335
vn -0.5812382 0 -0.8137335
vn -0.5812382 0 -0.8137335
vn 0 1 0
vn 0 1 0
vn 0 1 0
vn 0 1 0
vn -0.4710412 -0.3140275 -0.8243221
vn -0.5280937 -0.2151493 -0.8214791
vn -0.5773503 -0.1154701 -0.8082904
vn -0.5280937 -0.2151493 -0.8214791
vn 0 -1 0
vn 0 -1 0
vn 0 -1 0
vn 0 -1 0
vn 0.5280937 -0.2151493 -0.8214791
vn 0.4710412 -0.3140275 -0.8243221
vn 0.5280937 -0.2151493 -0.8214791
vn 0.5773503 -0.1154701 -0.8082904
vn 0.5812382 0 -0.8137335
vn 0.5812382 0 -0.8137335
vn 0.5812382 0 -0.8137335
vn 0.5812382 0 -0.8137335
vn -1 0 0
vn -1 0 0
vn -1 0 0
vn -1 0 0
vn 0 1 0
vn 0 0.9999999 0
vn 0 1 0
vn 0 0.9999999 0
vn -0.8320503 -0.5547002 0
vn -0.8320503 -0.5547002 0
vn -0.8320503 -0.5547002 0
vn -0.8320503 -0.5547002 0
vn 0 -1 0
vn 0 -1 0
vn 0 -1 0
vn 0 -1 0
vn 0.8363145 -0.4561715 -0.3041143
vn 0.8363145 -0.4561715 -0.3041143
vn 0.8363145 -0.4561715 -0.3041143
vn 0.8363145 -0.4561715 -0.3041143
vn 0.9397935 0 -0.3417431
vn 0.9397935 0 -0.3417431
vn 0.9397935 0 -0.3417431
vn 0.9397935 0 -0.3417431
vn -0.9615239 0 -0.2747211
vn -0.9615239 0 -0.2747211
vn -0.9615239 0 -0.2747211
vn -0.9615239 0 -0.2747211
vn -0.9284767 0 0.3713907
vn -0.9284767 0 0.3713907
vn -0.9284767 0 0.3713907
vn -0.9284767 0 0.3713907
vn 0 1 0
vn 0 1 0
vn 0 1 0
vn 0 1 0
vn 0 1 0
vn 0 1 0
vn 0 1 0
vn 0 1 0
vn -0.8427009 -0.4815434 -0.2407717
vn -0.8427009 -0.4815434 -0.2407717
vn -0.8427009 -0.4815434 -0.2407717
vn -0.8427009 -0.4815434 -0.2407717
vn -0.745356 -0.5962849 0.2981424
vn -0.745356 -0.5962849 0.2981424
vn -0.745356 -0.5962849 0.2981424
vn -0.745356 -0.5962849 0.2981424
vn 0 -1 0
vn 0 -1 0
vn 0 -1 0
vn 0 -1 0
vn 0 -1 0
vn 0 -1 0
vn 0 -1 0
vn 0 -1 0
vn 0.7756527 -0.5909735 0.2216151
vn 0.7756527 -0.5909735 0.2216151
vn 0.7756527 -0.5909735 0.2216151
vn 0.7756527 -0.5909735 0.2216151
vn 0.8320503 -0.5547003 0
vn 0.8320503 -0.5547003 0
vn 0.8320503 -0.5547003 0
vn 0.8320503 -0.5547003 0
vn 0.9615239 0 0.2747211
vn 0.9615239 0 0.2747211
vn 0.9615239 0 0.2747211
vn 0.9615239 0 0.2747211
vn 1 0 0
vn 1 0 0
vn 1 0 0
vn 1 0 0

vt 3 0
vt 0 0
vt 3 0.5
vt 0 0.5
vt 3 0
vt 0 0
vt 3 0.5
vt 0 0.5
vt 0 1.06066
vt 3 1.06066
vt 0.5 0
vt 2.5 0
vt 0 1.060661
vt 3 1.060661
vt 0.5 9.536743E-07
vt 2.5 9.536743E-07
vt -4.768372E-07 0
vt -4.768372E-07 0.5
vt 1.494328 0.5
vt 1.494328 0
vt 3 0
vt 6 0
vt 6.25 1.5
vt 2.75 1.5
vt -4.768372E-07 1.154068
vt 0.7342525 0.2421696
vt 1.506985 1.282269
vt 1.491593 0.3849019
vt 5 0
vt 3 0
vt 2.75 0.75
vt 5.25 0.75
vt 13.9753 1.388465
vt 13.25631 0.4631561
vt 12.49279 0.5910858
vt 12.4631 1.488606
vt 13.99976 0
vt 13.99976 0.5
vt 12.49832 0
vt 12.49832 0.5
vt 13.99682 0.5
vt 13.99682 0
vt 12.74177 0.5
vt 12.74177 0
vt 3 14
vt 6 14
vt 6.25 12.75
vt 2.75 12.75
vt 13.99337 0.8828375
vt 13.22833 1.192093E-07
vt 12.75165 1.064317
vt 12.2365 0.1766361
vt 3 12.5
vt 5 12.5
vt 2.75 11.5
vt 5.25 11.5
vt 0.778367 0
vt 0 0.8697305
vt 1.761757 0.1927714
vt 1.232949 1.071765
vt 0 0
vt 0 0.5
vt 1.248515 0
vt 1.248515 0.5
vt 12.74177 0
vt 12.74177 0.5
vt 11.45474 0.5
vt 11.45474 0
vt 2.75 12.75
vt 6.25 12.75
vt 8 11.5
vt 1 11.5
vt 12.2365 0.1766361
vt 12.75165 1.064317
vt 11.55612 2.189371
vt 11.29084 1.296847
vt 5.25 11.5
vt 2.75 11.5
vt 1 10.5
vt 7 10.5
vt 1.761757 0.1927714
vt 1.232949 1.071765
vt 2.656075 1.319857
vt 2.376826 2.208114
vt 1.248515 0.5
vt 1.248515 0
vt 2.48825 0
vt 2.48825 0.5
vt 1.494328 0
vt 1.494328 0.5
vt 2.706727 0.5
vt 2.706727 0
vt 6.25 1.5
vt 2.75 1.5
vt 8 2.75
vt 1 2.75
vt 1.491593 0.3849019
vt 1.506985 1.282269
vt 2.810264 2.358889
vt 2.54499 1.466365
vt 5.25 0.75
vt 2.75 0.75
vt 1 1.75
vt 7 1.75
vt 12.4631 1.488606
vt 12.49279 0.5910858
vt 11.39064 1.644067
vt 11.11139 2.532323
vt 12.49832 0.5
vt 12.49832 0
vt 11.2381 0
vt 11.2381 0.5
vt 2.706727 0
vt 2.706727 0.5
vt 5.456101 0.5
vt 5.456101 0
vt 1 2.75
vt 8 2.75
vt 8 5.5
vt 0 5.5
vt 2.810264 2.358889
vt 2.54499 1.466365
vt 5.55896 2.305612
vt 5.293687 1.413088
vt 7 1.75
vt 1 1.75
vt 1 4.5
vt 8 4.5
vt 11.11139 2.532323
vt 11.39064 1.644067
vt 8.586107 2.165048
vt 8.306858 3.053305
vt 11.2381 0.5
vt 11.2381 0
vt 8.482292 0
vt 8.482292 0.5
vt 5.456101 0
vt 5.456101 0.5
vt 8.933982 0.5
vt 8.933982 0
vt 11.45474 0.5
vt 11.45474 0
vt 8.933982 0.5
vt 8.933982 0
vt 1 11.5
vt 8 11.5
vt 9 9
vt 1 9
vt 0 5.5
vt 8 5.5
vt 9 9
vt 1 9
vt 5.55896 2.305612
vt 5.293687 1.413088
vt 9.088085 2.866854
vt 8.822811 1.97433
vt 11.55612 2.189371
vt 11.29084 1.296847
vt 9.088085 2.866854
vt 8.822811 1.97433
vt 8 4.5
vt 1 4.5
vt 0 8
vt 7 8
vt 1 10.5
vt 7 10.5
vt 0 8
vt 7 8
vt 8.306858 3.053305
vt 8.586107 2.165048
vt 5.151664 1.412488
vt 4.872415 2.300745
vt 2.656075 1.319857
vt 2.376826 2.208114
vt 5.151664 1.412488
vt 4.872415 2.300745
vt 8.482292 0.5
vt 8.482292 0
vt 4.988207 0
vt 4.988207 0.5
vt 2.48825 0
vt 2.48825 0.5
vt 4.988207 0
vt 4.988207 0.5

usemtl Default_Prototype
usemap Default_Prototype
f 2/2/2 1/1/1 3/3/3
f 4/4/4 2/2/2 3/3/3
f 6/6/6 5/5/5 7/7/7
f 8/8/8 6/6/6 7/7/7
f 10/10/10 9/9/9 11/11/11
f 12/12/12 10/10/10 11/11/11
f 14/14/14 13/13/13 15/15/15
f 16/16/16 14/14/14 15/15/15
f 18/18/18 17/17/17 20/20/20
f 19/19/19 18/18/18 20/20/20
f 21/21/21 22/22/22 24/24/24
f 22/22/22 23/23/23 24/24/24
f 25/25/25 26/26/26 27/27/27
f 27/27/27 26/26/26 28/28/28
f 30/30/30 29/29/29 32/32/32
f 31/31/31 30/30/30 32/32/32
f 34/34/34 33/33/33 36/36/36
f 35/35/35 34/34/34 36/36/36
f 37/37/37 38/38/38 40/40/40
f 39/39/39 37/37/37 40/40/40
f 42/42/42 41/41/41 44/44/44
f 41/41/41 43/43/43 44/44/44
f 46/46/46 45/45/45 48/48/48
f 47/47/47 46/46/46 48/48/48
f 50/50/50 49/49/49 51/51/51
f 50/50/50 51/51/51 52/52/52
f 54/54/54 53/53/53 56/56/56
f 53/53/53 55/55/55 56/56/56
f 58/58/58 57/57/57 60/60/60
f 57/57/57 59/59/59 60/60/60
f 62/62/62 61/61/61 64/64/64
f 61/61/61 63/63/63 64/64/64
f 65/65/65 66/66/66 68/68/68
f 66/66/66 67/67/67 68/68/68
f 70/70/70 69/69/69 71/71/71
f 71/71/71 69/69/69 72/72/72
f 73/73/73 74/74/74 75/75/75
f 73/73/73 75/75/75 76/76/76
f 77/77/77 78/78/78 80/80/80
f 78/78/78 79/79/79 80/80/80
f 82/82/82 81/81/81 84/84/84
f 81/81/81 83/83/83 84/84/84
f 85/85/85 86/86/86 88/88/88
f 86/86/86 87/87/87 88/88/88
f 90/90/90 89/89/89 92/92/92
f 91/91/91 90/90/90 92/92/92
f 94/94/94 93/93/93 96/96/96
f 93/93/93 95/95/95 96/96/96
f 98/98/98 97/97/97 100/100/100
f 99/99/99 98/98/98 100/100/100
f 102/102/102 101/101/101 104/104/104
f 103/103/103 102/102/102 104/104/104
f 106/106/106 105/105/105 107/107/107
f 107/107/107 105/105/105 108/108/108
f 110/110/110 109/109/109 112/112/112
f 111/111/111 110/110/110 112/112/112
f 114/114/114 113/113/113 116/116/116
f 115/115/115 114/114/114 116/116/116
f 117/117/117 118/118/118 120/120/120
f 118/118/118 119/119/119 120/120/120
f 121/121/121 122/122/122 124/124/124
f 123/123/123 121/121/121 124/124/124
f 126/126/126 125/125/125 128/128/128
f 127/127/127 126/126/126 128/128/128
f 130/130/130 129/129/129 131/131/131
f 131/131/131 129/129/129 132/132/132
f 134/134/134 133/133/133 136/136/136
f 135/135/135 134/134/134 136/136/136
f 138/138/138 137/137/137 140/140/140
f 139/139/139 138/138/138 140/140/140
f 142/142/142 141/141/141 143/143/143
f 142/142/142 143/143/143 144/144/144
f 146/146/146 145/145/145 148/148/148
f 147/147/147 146/146/146 148/148/148
f 149/149/149 150/150/150 152/152/152
f 150/150/150 151/151/151 152/152/152
f 153/153/153 154/154/154 156/156/156
f 155/155/155 153/153/153 156/156/156
f 158/158/158 157/157/157 159/159/159
f 158/158/158 159/159/159 160/160/160
f 162/162/162 161/161/161 164/164/164
f 163/163/163 162/162/162 164/164/164
f 166/166/166 165/165/165 167/167/167
f 166/166/166 167/167/167 168/168/168
f 170/170/170 169/169/169 171/171/171
f 171/171/171 169/169/169 172/172/172
f 174/174/174 173/173/173 176/176/176
f 173/173/173 175/175/175 176/176/176
f 178/178/178 177/177/177 180/180/180
f 179/179/179 178/178/178 180/180/180
f 182/182/182 181/181/181 183/183/183
f 182/182/182 183/183/183 184/184/184
