mtllib ./platform_01.mtl
g pb-Cube-51986
v -45.75 0 19
v -48.75 0 19
v -45.75 0.5 19
v -48.75 0.5 19
v -48.75 0 -3
v -45.75 0 -3
v -48.75 0.5 -3
v -45.75 0.5 -3
v -45.75 0 -3
v -48.75 0 -3
v -46.25 -0.75 -2.25
v -48.25 -0.75 -2.25
v -48.75 0 19
v -45.75 0 19
v -48.25 -0.75 18.25
v -46.25 -0.75 18.25
v -46.25 0 14
v -46.25 0.5 14
v -48 0.5 16.5
v -48 0 16.5
v -48.75 0.5 19
v -48.75 0 19
v -48 0.5 16.5
v -48 0 16.5
v -45.75 0.5 19
v -48.75 0.5 19
v -48 0.5 16.5
v -45 0.5 16.5
v -46.25 0.5 14
v -43.25 0.5 14
v -48 0.5 16.5
v -45 0.5 16.5
v -46.25 0 14
v -45.75 -0.75 13.5
v -48 0 16.5
v -47.5 -0.75 16
v -48.75 0 19
v -48.25 -0.75 18.25
v -48 0 16.5
v -47.5 -0.75 16
v -45.75 -0.75 13.5
v -43.75 -0.75 13.5
v -47.5 -0.75 16
v -45.5 -0.75 16
v -48.25 -0.75 18.25
v -46.25 -0.75 18.25
v -47.5 -0.75 16
v -45.5 -0.75 16
v -43.25 0 14
v -43.75 -0.75 13.5
v -45.5 -0.75 16
v -45 0 16.5
v -46.25 -0.75 18.25
v -45.75 0 19
v -45.5 -0.75 16
v -45 0 16.5
v -43.25 0.5 14
v -43.25 0 14
v -45 0 16.5
v -45 0.5 16.5
v -45.75 0 19
v -45.75 0.5 19
v -45 0 16.5
v -45 0.5 16.5
v -45 0 4.5
v -45 0.5 4.5
v -47.75 0.5 2
v -47.75 0 2
v -45 0.5 4.5
v -42 0.5 4.5
v -47.75 0.5 2
v -44.75 0.5 2
v -44.5 -0.75 4.25
v -45 0 4.5
v -47.75 0 2
v -47.25 -0.75 2
v -44.5 -0.75 4.25
v -42.5 -0.75 4.25
v -47.25 -0.75 2
v -45.25 -0.75 2
v -42.5 -0.75 4.25
v -42 0 4.5
v -45.25 -0.75 2
v -44.75 0 2
v -42 0.5 4.5
v -42 0 4.5
v -44.75 0 2
v -44.75 0.5 2
v -45 0 4.5
v -45 0.5 4.5
v -45 0.5 7
v -45 0 7
v -46.25 0.5 9.25
v -46.25 0 9.25
v -45 0.5 7
v -45 0 7
v -43.25 0.5 9.25
v -46.25 0.5 9.25
v -45 0.5 7
v -42 0.5 7
v -42 0.5 4.5
v -45 0.5 4.5
v -45 0.5 7
v -42 0.5 7
v -45 0 4.5
v -44.5 -0.75 4.25
v -45 0 7
v -44.5 -0.75 6.5
v -46.25 0 9.25
v -45.75 -0.75 9
v -45 0 7
v -44.5 -0.75 6.5
v -42.5 -0.75 4.25
v -44.5 -0.75 4.25
v -44.5 -0.75 6.5
v -42.5 -0.75 6.5
v -45.75 -0.75 9
v -43.75 -0.75 9
v -44.5 -0.75 6.5
v -42.5 -0.75 6.5
v -42 0 4.5
v -42.5 -0.75 4.25
v -42.5 -0.75 6.5
v -42 0 7
v -43.75 -0.75 9
v -43.25 0 9.25
v -42.5 -0.75 6.5
v -42 0 7
v -42 0.5 4.5
v -42 0 4.5
v -42 0 7
v -42 0.5 7
v -43.25 0 9.25
v -43.25 0.5 9.25
v -42 0 7
v -42 0.5 7
v -46.25 0 9.25
v -46.25 0.5 9.25
v -45.75 0.5 11.5
v -45.75 0 11.5
v -46.25 0 14
v -46.25 0.5 14
v -45.75 0.5 11.5
v -45.75 0 11.5
v -43.25 0.5 14
v -46.25 0.5 14
v -45.75 0.5 11.5
v -42.75 0.5 11.5
v -46.25 0.5 9.25
v -43.25 0.5 9.25
v -45.75 0.5 11.5
v -42.75 0.5 11.5
v -45.75 -0.75 9
v -46.25 0 9.25
v -45.75 0 11.5
v -45.25 -0.75 11.25
v -45.75 -0.75 13.5
v -46.25 0 14
v -45.75 0 11.5
v -45.25 -0.75 11.25
v -43.75 -0.75 9
v -45.75 -0.75 9
v -45.25 -0.75 11.25
v -43.25 -0.75 11.25
v -43.75 -0.75 13.5
v -45.75 -0.75 13.5
v -45.25 -0.75 11.25
v -43.25 -0.75 11.25
v -43.25 0 9.25
v -43.75 -0.75 9
v -43.25 -0.75 11.25
v -42.75 0 11.5
v -43.75 -0.75 13.5
v -43.25 0 14
v -43.25 -0.75 11.25
v -42.75 0 11.5
v -43.25 0.5 9.25
v -43.25 0 9.25
v -42.75 0 11.5
v -42.75 0.5 11.5
v -43.25 0.5 14
v -43.25 0 14
v -42.75 0 11.5
v -42.75 0.5 11.5
v -48.5 0 -0.5
v -48.5 0.5 -0.5
v -47.75 0.5 0.75
v -47.75 0 0.75
v -47.75 0 2
v -47.75 0.5 2
v -47.75 0.5 0.75
v -47.75 0 0.75
v -47.75 0.5 2
v -44.75 0.5 2
v -47.75 0.5 0.75
v -44.75 0.5 0.75
v -48.5 0.5 -0.5
v -45.5 0.5 -0.5
v -47.75 0.5 0.75
v -44.75 0.5 0.75
v -48 -0.75 -0.5
v -48.5 0 -0.5
v -47.75 0 0.75
v -47.25 -0.75 0.75
v -47.25 -0.75 2
v -47.75 0 2
v -47.75 0 0.75
v -47.25 -0.75 0.75
v -46 -0.75 -0.5
v -48 -0.75 -0.5
v -47.25 -0.75 0.75
v -45.25 -0.75 0.75
v -47.25 -0.75 2
v -45.25 -0.75 2
v -47.25 -0.75 0.75
v -45.25 -0.75 0.75
v -45.5 0 -0.5
v -46 -0.75 -0.5
v -45.25 -0.75 0.75
v -44.75 0 0.75
v -45.25 -0.75 2
v -44.75 0 2
v -45.25 -0.75 0.75
v -44.75 0 0.75
v -45.5 0.5 -0.5
v -45.5 0 -0.5
v -44.75 0 0.75
v -44.75 0.5 0.75
v -44.75 0.5 2
v -44.75 0 2
v -44.75 0 0.75
v -44.75 0.5 0.75
v -48.75 0 -3
v -48.75 0.5 -3
v -48.25 0.5 -1.75
v -48.25 0 -1.75
v -48.5 0 -0.5
v -48.5 0.5 -0.5
v -48.25 0.5 -1.75
v -48.25 0 -1.75
v -45.5 0.5 -0.5
v -48.5 0.5 -0.5
v -48.25 0.5 -1.75
v -45.25 0.5 -1.75
v -48.75 0.5 -3
v -45.75 0.5 -3
v -48.25 0.5 -1.75
v -45.25 0.5 -1.75
v -48.25 -0.75 -2.25
v -48.75 0 -3
v -48.25 0 -1.75
v -47.75 -0.75 -1.5
v -48.5 0 -0.5
v -48 -0.75 -0.5
v -48.25 0 -1.75
v -47.75 -0.75 -1.5
v -46.25 -0.75 -2.25
v -48.25 -0.75 -2.25
v -47.75 -0.75 -1.5
v -45.75 -0.75 -1.5
v -46 -0.75 -0.5
v -48 -0.75 -0.5
v -47.75 -0.75 -1.5
v -45.75 -0.75 -1.5
v -45.75 0 -3
v -46.25 -0.75 -2.25
v -45.75 -0.75 -1.5
v -45.25 0 -1.75
v -45.5 0 -0.5
v -46 -0.75 -0.5
v -45.75 -0.75 -1.5
v -45.25 0 -1.75
v -45.75 0.5 -3
v -45.75 0 -3
v -45.25 0 -1.75
v -45.25 0.5 -1.75
v -45.5 0.5 -0.5
v -45.5 0 -0.5
v -45.25 0 -1.75
v -45.25 0.5 -1.75

vn 0 0 1
vn 0 0 1
vn 0 0 1
vn 0 0 1
vn 0 0 -1
vn 0 0 -1
vn 0 0 -1
vn 0 0 -1
vn 0 -0.7071067 -0.7071067
vn 0 -0.7071068 -0.7071068
vn 0 -0.7071068 -0.7071068
vn 0 -0.7071068 -0.7071068
vn 0 -0.7071067 0.7071067
vn 0 -0.7071068 0.7071068
vn 0 -0.7071068 0.7071068
vn 0 -0.7071068 0.7071068
vn -0.8192319 0 -0.5734624
vn -0.8192319 0 -0.5734624
vn -0.8192319 0 -0.5734624
vn -0.8192319 0 -0.5734624
vn -0.9578263 0 -0.2873479
vn -0.9578263 0 -0.2873479
vn -0.9578263 0 -0.2873479
vn -0.9578263 0 -0.2873479
vn 0 1 0
vn 0 1 0
vn 0 1 0
vn 0 1 0
vn 0 1 0
vn 0 1 0
vn 0 1 0
vn 0 1 0
vn -0.8084521 -0.1616904 -0.5659164
vn -0.8084521 -0.1616904 -0.5659164
vn -0.8084521 -0.1616904 -0.5659164
vn -0.8084521 -0.1616904 -0.5659164
vn -0.9037129 -0.3313614 -0.2711139
vn -0.8899734 -0.3591121 -0.2810442
vn -0.8899734 -0.3591121 -0.2810442
vn -0.8741573 -0.3885143 -0.2913858
vn 0 -1 0
vn 0 -1 0
vn 0 -1 0
vn 0 -1 0
vn 0 -1 0
vn 0 -1 0
vn 0 -1 0
vn 0 -1 0
vn 0.6003603 -0.6804084 0.4202522
vn 0.6003603 -0.6804084 0.4202522
vn 0.6003603 -0.6804084 0.4202522
vn 0.6003603 -0.6804084 0.4202522
vn 0.7135041 -0.6634336 0.2253171
vn 0.7028248 -0.6793973 0.2108474
vn 0.7252407 -0.6446584 0.2417469
vn 0.7135041 -0.6634336 0.2253171
vn 0.8192319 0 0.5734624
vn 0.8192319 0 0.5734624
vn 0.8192319 0 0.5734624
vn 0.8192319 0 0.5734624
vn 0.9578263 0 0.2873479
vn 0.9578263 0 0.2873479
vn 0.9578263 0 0.2873479
vn 0.9578263 0 0.2873479
vn -0.6726727 0 0.73994
vn -0.6726727 0 0.73994
vn -0.6726727 0 0.73994
vn -0.6726727 0 0.73994
vn 0 1 0
vn 0 1 0
vn 0 1 0
vn 0 1 0
vn -0.569829 -0.4898531 0.6598021
vn -0.5523447 -0.5707562 0.6075792
vn -0.569829 -0.4898531 0.6598021
vn -0.5833833 -0.3889222 0.7130241
vn 0 -1 0
vn 0 -1 0
vn 0 -1 0
vn 0 -1 0
vn 0.6243787 -0.2957584 -0.7229649
vn 0.6593804 -0.1978141 -0.7253185
vn 0.5833833 -0.3889222 -0.7130241
vn 0.6243787 -0.2957584 -0.7229649
vn 0.6726727 0 -0.73994
vn 0.6726727 0 -0.73994
vn 0.6726727 0 -0.73994
vn 0.6726727 0 -0.73994
vn -1 0 0
vn -1 0 0
vn -1 0 0
vn -1 0 0
vn -0.8741572 0 -0.4856429
vn -0.8741572 0 -0.4856429
vn -0.8741572 0 -0.4856429
vn -0.8741572 0 -0.4856429
vn 0 1 0
vn 0 1 0
vn 0 1 0
vn 0 1 0
vn 0 1 0
vn 0 1 0
vn 0 1 0
vn 0 1 0
vn -0.8320503 -0.5547002 0
vn -0.8320503 -0.5547002 0
vn -0.8320503 -0.5547003 0
vn -0.8320503 -0.5547002 0
vn -0.805701 -0.3879301 -0.4476117
vn -0.8333833 -0.3362775 -0.4386228
vn -0.8333833 -0.3362775 -0.4386228
vn -0.8571429 -0.2857143 -0.4285714
vn 0 -1 0
vn 0 -1 0
vn 0 -1 0
vn 0 -1 0
vn 0 -1 0
vn 0 -1 0
vn 0 -1 0
vn 0 -1 0
vn 0.8320503 -0.5547002 0
vn 0.8320503 -0.5547002 0
vn 0.8320503 -0.5547002 0
vn 0.8320503 -0.5547003 0
vn 0.6833334 -0.6353802 0.3596492
vn 0.7011213 -0.5972515 0.3895119
vn 0.6666667 -0.6666667 0.3333333
vn 0.6833334 -0.6353802 0.3596492
vn 1 0 0
vn 1 0 0
vn 1 0 0
vn 1 0 0
vn 0.8741572 0 0.4856429
vn 0.8741572 0 0.4856429
vn 0.8741572 0 0.4856429
vn 0.8741572 0 0.4856429
vn -0.9761871 0 0.2169305
vn -0.9761871 0 0.2169305
vn -0.9761871 0 0.2169305
vn -0.9761871 0 0.2169305
vn -0.9805807 0 -0.1961161
vn -0.9805807 0 -0.1961161
vn -0.9805807 0 -0.1961161
vn -0.9805807 0 -0.1961161
vn 0 1 0
vn 0 1 0
vn 0 1 0
vn 0 1 0
vn 0 1 0
vn 0 1 0
vn 0 1 0
vn 0 1 0
vn -0.7910443 -0.5859587 0.1757876
vn -0.7910443 -0.5859587 0.1757876
vn -0.7910443 -0.5859587 0.1757876
vn -0.7910443 -0.5859587 0.1757876
vn -0.8576521 -0.4814889 -0.1805583
vn -0.8689267 -0.4634276 -0.1737853
vn -0.8576521 -0.4814889 -0.1805583
vn -0.8449887 -0.500734 -0.1877753
vn 0 -1 0
vn 0 -1 0
vn 0 -1 0
vn 0 -1 0
vn 0 -1 0
vn 0 -1 0
vn 0 -1 0
vn 0 -1 0
vn 0.8449887 -0.500734 -0.1877753
vn 0.8449887 -0.500734 -0.1877753
vn 0.8449887 -0.500734 -0.1877753
vn 0.8449887 -0.500734 -0.1877753
vn 0.7808219 -0.6027397 0.1643836
vn 0.7715167 -0.6172134 0.1543033
vn 0.7910443 -0.5859587 0.1757876
vn 0.7808219 -0.6027397 0.1643836
vn 0.9761871 0 -0.2169305
vn 0.9761871 0 -0.2169305
vn 0.9761871 0 -0.2169305
vn 0.9761871 0 -0.2169305
vn 0.9805807 0 0.1961161
vn 0.9805807 0 0.1961161
vn 0.9805807 0 0.1961161
vn 0.9805807 0 0.1961161
vn -0.857493 0 0.5144958
vn -0.857493 0 0.5144958
vn -0.857493 0 0.5144958
vn -0.857493 0 0.5144958
vn -1 0 0
vn -1 0 0
vn -1 0 0
vn -1 0 0
vn 0 1 0
vn 0 1 0
vn 0 1 0
vn 0 1 0
vn 0 1 0
vn 0 1 0
vn 0 1 0
vn 0 1 0
vn -0.7444376 -0.4962917 0.4466625
vn -0.7444376 -0.4962917 0.4466625
vn -0.7444376 -0.4962917 0.4466625
vn -0.7444376 -0.4962917 0.4466625
vn -0.8320503 -0.5547003 0
vn -0.8320503 -0.5547003 0
vn -0.8320503 -0.5547003 0
vn -0.8320503 -0.5547003 0
vn 0 -1 0
vn 0 -1 0
vn 0 -1 0
vn 0 -1 0
vn 0 -1 0
vn 0 -1 0
vn 0 -1 0
vn 0 -1 0
vn 0.7444376 -0.4962917 -0.4466625
vn 0.7444376 -0.4962917 -0.4466625
vn 0.7444376 -0.4962917 -0.4466625
vn 0.7444376 -0.4962917 -0.4466625
vn 0.8320503 -0.5547003 0
vn 0.8320503 -0.5547003 0
vn 0.8320503 -0.5547003 0
vn 0.8320503 -0.5547003 0
vn 0.857493 0 -0.5144958
vn 0.857493 0 -0.5144958
vn 0.857493 0 -0.5144958
vn 0.857493 0 -0.5144958
vn 1 0 0
vn 1 0 0
vn 1 0 0
vn 1 0 0
vn -0.9284767 0 0.3713907
vn -0.9284767 0 0.3713907
vn -0.9284767 0 0.3713907
vn -0.9284767 0 0.3713907
vn -0.9805807 0 -0.1961161
vn -0.9805807 0 -0.1961161
vn -0.9805807 0 -0.1961161
vn -0.9805807 0 -0.1961161
vn 0 1 0
vn 0 1 0
vn 0 1 0
vn 0 1 0
vn 0 1 0
vn 0 1 0
vn 0 1 0
vn 0 1 0
vn -0.8571429 -0.2857143 0.4285715
vn -0.9012627 -0.2403367 0.3605051
vn -0.8571429 -0.2857143 0.4285715
vn -0.780399 -0.346844 0.520266
vn -0.8046269 -0.566219 -0.178806
vn -0.8146131 -0.5430754 -0.2036533
vn -0.7961173 -0.5838193 -0.1592235
vn -0.8046269 -0.566219 -0.178806
vn 0 -1 0
vn 0 -1 0
vn 0 -1 0
vn 0 -1 0
vn 0 -1 0
vn 0 -1 0
vn 0 -1 0
vn 0 -1 0
vn 0.6596993 -0.7036792 -0.2638797
vn 0.6666667 -0.6666667 -0.3333333
vn 0.6689647 -0.5946353 -0.4459765
vn 0.6666667 -0.6666667 -0.3333333
vn 0.8316554 -0.5236349 0.1848123
vn 0.8146131 -0.5430754 0.2036533
vn 0.8316554 -0.5236349 0.1848123
vn 0.8451542 -0.5070925 0.1690308
vn 0.9284767 0 -0.3713907
vn 0.9284767 0 -0.3713907
vn 0.9284767 0 -0.3713907
vn 0.9284767 0 -0.3713907
vn 0.9805807 0 0.1961161
vn 0.9805807 0 0.1961161
vn 0.9805807 0 0.1961161
vn 0.9805807 0 0.1961161

vt 3 0
vt 0 0
vt 3 0.5
vt 0 0.5
vt 3 0
vt 0 0
vt 3 0.5
vt 0 0.5
vt 0 1.06066
vt 3 1.06066
vt 0.5 0
vt 2.5 0
vt 0 1.060661
vt 3 1.060661
vt 0.5 9.536743E-07
vt 2.5 9.536743E-07
vt 17.02498 0
vt 17.02498 0.5
vt 19.50672 0.5
vt 19.50672 0
vt 21.99882 0.5
vt 21.99882 0
vt 19.50672 0.5
vt 19.50672 0
vt 3.75 22
vt 6.75 22
vt 6 19.5
vt 3 19.5
vt 4.25 17
vt 1.25 17
vt 6 19.5
vt 3 19.5
vt 16.97924 1.473229
vt 16.47522 0.5769365
vt 19.4933 2.309454
vt 18.98928 1.413162
vt 21.99928 2.662256
vt 21.24527 1.766941
vt 19.4933 2.309454
vt 18.98928 1.413162
vt 2.5 15.75
vt 4.5 15.75
vt 0.75 18.25
vt 2.75 18.25
vt 0 20.5
vt 2 20.5
vt 0.75 18.25
vt 2.75 18.25
vt 4.922728 2.475746
vt 5.437507 1.584885
vt 2.991146 0.4903197
vt 2.476368 1.381181
vt 0.7646656 0
vt 0 0.88636
vt 2.991146 0.4903197
vt 2.476368 1.381181
vt 4.973837 0.5
vt 4.973837 0
vt 2.492098 0
vt 2.492098 0.5
vt 0 0
vt 0 0.5
vt 2.492098 0
vt 2.492098 0.5
vt 7.538439 0
vt 7.538439 0.5
vt 5.010089 0.5
vt 5.010089 0
vt 3 7.5
vt 0 7.5
vt 5.75 5
vt 2.75 5
vt 7.215423 0.008788705
vt 7.469455 0.9060574
vt 4.991756 2.245237
vt 4.987716 1.346992
vt 3.75 6.5
vt 5.75 6.5
vt 1 4.25
vt 3 4.25
vt 14.64583 2.501114
vt 14.38094 3.396476
vt 16.97734 0.8923297
vt 16.96234 1.792194
vt 14.46038 0.5
vt 14.46038 0
vt 16.98873 0
vt 16.98873 0.5
vt 7.538439 0
vt 7.538439 0.5
vt 10.0383 0.5
vt 10.0383 0
vt 12.27524 0.5
vt 12.27524 0
vt 10.0383 0.5
vt 10.0383 0
vt 1.25 12.25
vt 4.25 12.25
vt 3 10
vt 0 10
vt 0 7.5
vt 3 7.5
vt 3 10
vt 0 10
vt 7.469455 0.9060574
vt 7.215423 0.008788705
vt 9.969373 0.8962921
vt 9.465349 0
vt 12.2294 1.491783
vt 11.97537 0.594514
vt 9.969373 0.8962921
vt 9.465349 0
vt 5.75 6.5
vt 3.75 6.5
vt 3.75 8.75
vt 5.75 8.75
vt 2.5 11.25
vt 4.5 11.25
vt 3.75 8.75
vt 5.75 8.75
vt 14.38094 3.396476
vt 14.64583 2.501114
vt 12.39684 2.460602
vt 11.88207 3.351463
vt 9.935481 1.665909
vt 9.670589 2.561271
vt 12.39684 2.460602
vt 11.88207 3.351463
vt 14.46038 0.5
vt 14.46038 0
vt 11.96051 0
vt 11.96051 0.5
vt 9.723582 0
vt 9.723582 0.5
vt 11.96051 0
vt 11.96051 0.5
vt 12.27524 0
vt 12.27524 0.5
vt 14.5303 0.5
vt 14.5303 0
vt 17.02498 0
vt 17.02498 0.5
vt 14.5303 0.5
vt 14.5303 0
vt 1.25 17
vt 4.25 17
vt 3.75 14.5
vt 0.75 14.5
vt 4.25 12.25
vt 1.25 12.25
vt 3.75 14.5
vt 0.75 14.5
vt 11.97537 0.594514
vt 12.2294 1.491783
vt 14.47529 1.241282
vt 14.22125 0.3440136
vt 16.47522 0.5769365
vt 16.97924 1.473229
vt 14.47529 1.241282
vt 14.22125 0.3440136
vt 4.5 11.25
vt 2.5 11.25
vt 3 13.5
vt 5 13.5
vt 4.5 15.75
vt 2.5 15.75
vt 3 13.5
vt 5 13.5
vt 9.670589 2.561271
vt 9.935481 1.665909
vt 7.67149 1.925269
vt 7.406598 2.820631
vt 5.437507 1.584885
vt 4.922728 2.475746
vt 7.67149 1.925269
vt 7.406598 2.820631
vt 9.723582 0.5
vt 9.723582 0
vt 7.468524 0
vt 7.468524 0.5
vt 4.973837 0.5
vt 4.973837 0
vt 7.468524 0
vt 7.468524 0.5
vt 2.502456 0
vt 2.502456 0.5
vt 3.760157 0.5
vt 3.760157 0
vt 5.010089 0
vt 5.010089 0.5
vt 3.760157 0.5
vt 3.760157 0
vt 5.75 5
vt 2.75 5
vt 5.75 3.75
vt 2.75 3.75
vt 6.5 2.5
vt 3.5 2.5
vt 5.75 3.75
vt 2.75 3.75
vt 2.493857 1.719325
vt 2.497897 2.61757
vt 3.741797 2.25012
vt 3.737757 1.351875
vt 4.987716 1.346992
vt 4.991756 2.245237
vt 3.741797 2.25012
vt 3.737757 1.351875
vt 2.25 1.75
vt 0.25 1.75
vt 1 3
vt 3 3
vt 1 4.25
vt 3 4.25
vt 1 3
vt 3 3
vt 19.48372 1.387399
vt 19.49872 0.487535
vt 18.22678 0.9148363
vt 18.21177 1.8147
vt 16.97734 0.8923297
vt 16.96234 1.792194
vt 18.22678 0.9148363
vt 18.21177 1.8147
vt 19.49636 0.5
vt 19.49636 0
vt 18.23866 0
vt 18.23866 0.5
vt 16.98873 0.5
vt 16.98873 0
vt 18.23866 0
vt 18.23866 0.5
vt 0 0
vt 0 0.5
vt 1.255112 0.5
vt 1.255112 0
vt 2.502456 0
vt 2.502456 0.5
vt 1.255112 0.5
vt 1.255112 0
vt 3.5 2.5
vt 6.5 2.5
vt 6.25 1.25
vt 3.25 1.25
vt 6.75 0
vt 3.75 0
vt 6.25 1.25
vt 3.25 1.25
vt 0.7459345 1.847016
vt -9.536743E-07 2.748191
vt 1.245918 2.501597
vt 1.49187 1.602375
vt 2.497897 2.61757
vt 2.493857 1.719325
vt 1.245918 2.501597
vt 1.49187 1.602375
vt 2 0
vt 0 0
vt 0.5 0.75
vt 2.5 0.75
vt 2.25 1.75
vt 0.25 1.75
vt 0.5 0.75
vt 2.5 0.75
vt 21.99009 1.282476
vt 21.25543 0.3691082
vt 20.49077 0.6554763
vt 20.72565 1.559842
vt 19.48372 1.387399
vt 19.49872 0.487535
vt 20.49077 0.6554763
vt 20.72565 1.559842
vt 21.99882 0.5
vt 21.99882 0
vt 20.74371 0
vt 20.74371 0.5
vt 19.49636 0.5
vt 19.49636 0
vt 20.74371 0
vt 20.74371 0.5

usemtl Default_Prototype
usemap Default_Prototype
f 2/2/2 1/1/1 3/3/3
f 4/4/4 2/2/2 3/3/3
f 6/6/6 5/5/5 7/7/7
f 8/8/8 6/6/6 7/7/7
f 10/10/10 9/9/9 11/11/11
f 12/12/12 10/10/10 11/11/11
f 14/14/14 13/13/13 15/15/15
f 16/16/16 14/14/14 15/15/15
f 18/18/18 17/17/17 20/20/20
f 19/19/19 18/18/18 20/20/20
f 22/22/22 21/21/21 24/24/24
f 21/21/21 23/23/23 24/24/24
f 26/26/26 25/25/25 27/27/27
f 27/27/27 25/25/25 28/28/28
f 30/30/30 29/29/29 32/32/32
f 29/29/29 31/31/31 32/32/32
f 33/33/33 34/34/34 36/36/36
f 35/35/35 33/33/33 36/36/36
f 38/38/38 37/37/37 39/39/39
f 38/38/38 39/39/39 40/40/40
f 41/41/41 42/42/42 44/44/44
f 43/43/43 41/41/41 44/44/44
f 46/46/46 45/45/45 47/47/47
f 46/46/46 47/47/47 48/48/48
f 50/50/50 49/49/49 51/51/51
f 51/51/51 49/49/49 52/52/52
f 54/54/54 53/53/53 56/56/56
f 53/53/53 55/55/55 56/56/56
f 58/58/58 57/57/57 60/60/60
f 59/59/59 58/58/58 60/60/60
f 62/62/62 61/61/61 64/64/64
f 61/61/61 63/63/63 64/64/64
f 65/65/65 66/66/66 68/68/68
f 66/66/66 67/67/67 68/68/68
f 69/69/69 70/70/70 72/72/72
f 71/71/71 69/69/69 72/72/72
f 73/73/73 74/74/74 75/75/75
f 73/73/73 75/75/75 76/76/76
f 78/78/78 77/77/77 80/80/80
f 77/77/77 79/79/79 80/80/80
f 82/82/82 81/81/81 84/84/84
f 81/81/81 83/83/83 84/84/84
f 85/85/85 86/86/86 88/88/88
f 86/86/86 87/87/87 88/88/88
f 90/90/90 89/89/89 92/92/92
f 91/91/91 90/90/90 92/92/92
f 94/94/94 93/93/93 96/96/96
f 93/93/93 95/95/95 96/96/96
f 98/98/98 97/97/97 99/99/99
f 99/99/99 97/97/97 100/100/100
f 101/101/101 102/102/102 104/104/104
f 102/102/102 103/103/103 104/104/104
f 105/105/105 106/106/106 108/108/108
f 107/107/107 105/105/105 108/108/108
f 110/110/110 109/109/109 111/111/111
f 110/110/110 111/111/111 112/112/112
f 114/114/114 113/113/113 116/116/116
f 115/115/115 114/114/114 116/116/116
f 118/118/118 117/117/117 119/119/119
f 118/118/118 119/119/119 120/120/120
f 122/122/122 121/121/121 123/123/123
f 123/123/123 121/121/121 124/124/124
f 126/126/126 125/125/125 128/128/128
f 125/125/125 127/127/127 128/128/128
f 130/130/130 129/129/129 132/132/132
f 131/131/131 130/130/130 132/132/132
f 134/134/134 133/133/133 136/136/136
f 133/133/133 135/135/135 136/136/136
f 138/138/138 137/137/137 140/140/140
f 139/139/139 138/138/138 140/140/140
f 141/141/141 142/142/142 144/144/144
f 142/142/142 143/143/143 144/144/144
f 146/146/146 145/145/145 148/148/148
f 147/147/147 146/146/146 148/148/148
f 150/150/150 149/149/149 152/152/152
f 149/149/149 151/151/151 152/152/152
f 154/154/154 153/153/153 156/156/156
f 155/155/155 154/154/154 156/156/156
f 157/157/157 158/158/158 159/159/159
f 157/157/157 159/159/159 160/160/160
f 162/162/162 161/161/161 163/163/163
f 163/163/163 161/161/161 164/164/164
f 165/165/165 166/166/166 168/168/168
f 166/166/166 167/167/167 168/168/168
f 170/170/170 169/169/169 171/171/171
f 171/171/171 169/169/169 172/172/172
f 174/174/174 173/173/173 176/176/176
f 173/173/173 175/175/175 176/176/176
f 178/178/178 177/177/177 180/180/180
f 179/179/179 178/178/178 180/180/180
f 181/181/181 182/182/182 184/184/184
f 182/182/182 183/183/183 184/184/184
f 186/186/186 185/185/185 188/188/188
f 187/187/187 186/186/186 188/188/188
f 189/189/189 190/190/190 192/192/192
f 190/190/190 191/191/191 192/192/192
f 193/193/193 194/194/194 196/196/196
f 195/195/195 193/193/193 196/196/196
f 198/198/198 197/197/197 199/199/199
f 198/198/198 199/199/199 200/200/200
f 202/202/202 201/201/201 204/204/204
f 203/203/203 202/202/202 204/204/204
f 205/205/205 206/206/206 208/208/208
f 206/206/206 207/207/207 208/208/208
f 210/210/210 209/209/209 211/211/211
f 211/211/211 209/209/209 212/212/212
f 214/214/214 213/213/213 216/216/216
f 213/213/213 215/215/215 216/216/216
f 218/218/218 217/217/217 220/220/220
f 219/219/219 218/218/218 220/220/220
f 222/222/222 221/221/221 224/224/224
f 221/221/221 223/223/223 224/224/224
f 226/226/226 225/225/225 228/228/228
f 227/227/227 226/226/226 228/228/228
f 229/229/229 230/230/230 232/232/232
f 230/230/230 231/231/231 232/232/232
f 234/234/234 233/233/233 236/236/236
f 235/235/235 234/234/234 236/236/236
f 237/237/237 238/238/238 240/240/240
f 238/238/238 239/239/239 240/240/240
f 242/242/242 241/241/241 244/244/244
f 243/243/243 242/242/242 244/244/244
f 246/246/246 245/245/245 247/247/247
f 246/246/246 247/247/247 248/248/248
f 250/250/250 249/249/249 251/251/251
f 251/251/251 249/249/249 252/252/252
f 254/254/254 253/253/253 256/256/256
f 253/253/253 255/255/255 256/256/256
f 258/258/258 257/257/257 259/259/259
f 259/259/259 257/257/257 260/260/260
f 261/261/261 262/262/262 264/264/264
f 262/262/262 263/263/263 264/264/264
f 266/266/266 265/265/265 268/268/268
f 267/267/267 266/266/266 268/268/268
f 269/269/269 270/270/270 271/271/271
f 269/269/269 271/271/271 272/272/272
f 274/274/274 273/273/273 276/276/276
f 275/275/275 274/274/274 276/276/276
f 277/277/277 278/278/278 280/280/280
f 278/278/278 279/279/279 280/280/280
