mtllib ./platform_06.mtl
g pb-Cube-51986
v -6.75 0 11.75
v -9.75 0 11.75
v -6.75 0.5 11.75
v -9.75 0.5 11.75
v -9.75 0 -3
v -6.75 0 -3
v -9.75 0.5 -3
v -6.75 0.5 -3
v -6.75 0 -3
v -9.75 0 -3
v -7.25 -0.75 -2.25
v -9.25 -0.75 -2.25
v -9.75 0 11.75
v -6.75 0 11.75
v -9.25 -0.75 11
v -7.25 -0.75 11
v -9.75 0 -3
v -9.75 0.5 -3
v -9.75 0 0.25
v -9.75 -0.5 0.25
v -6.75 0.5 -3
v -9.75 0.5 -3
v -9.75 0 0.25
v -6.75 0 0.25
v -9.75 0 -3
v -9.25 -0.75 -2.25
v -9.75 -0.5 0.25
v -9.25 -1.25 0.25
v -7.25 -0.75 -2.25
v -9.25 -0.75 -2.25
v -9.25 -1.25 0.25
v -7.25 -1.25 0.25
v -6.75 0 -3
v -7.25 -0.75 -2.25
v -7.25 -1.25 0.25
v -6.75 -0.5 0.25
v -6.75 0 -3
v -6.75 0.5 -3
v -6.75 -0.5 0.25
v -6.75 0 0.25
v -9.75 1 6
v -9.75 0.5 6
v -9.75 0.25 9
v -9.75 -0.25 9
v -9.75 0.5 11.75
v -9.75 0 11.75
v -9.75 0.25 9
v -9.75 -0.25 9
v -6.75 0.5 11.75
v -9.75 0.5 11.75
v -9.75 0.25 9
v -6.75 0.25 9
v -6.75 1 6
v -9.75 1 6
v -9.75 0.25 9
v -6.75 0.25 9
v -9.75 0.5 6
v -9.25 -0.25 5.5
v -9.75 -0.25 9
v -9.25 -1 8.25
v -9.75 0 11.75
v -9.25 -0.75 11
v -9.75 -0.25 9
v -9.25 -1 8.25
v -7.25 -0.25 5.5
v -9.25 -0.25 5.5
v -9.25 -1 8.25
v -7.25 -1 8.25
v -9.25 -0.75 11
v -7.25 -0.75 11
v -9.25 -1 8.25
v -7.25 -1 8.25
v -6.75 0.5 6
v -7.25 -0.25 5.5
v -7.25 -1 8.25
v -6.75 -0.25 9
v -7.25 -0.75 11
v -6.75 0 11.75
v -7.25 -1 8.25
v -6.75 -0.25 9
v -6.75 1 6
v -6.75 0.5 6
v -6.75 -0.25 9
v -6.75 0.25 9
v -6.75 0 11.75
v -6.75 0.5 11.75
v -6.75 -0.25 9
v -6.75 0.25 9
v -9.75 -0.5 0.25
v -9.75 0 0.25
v -9.75 0.75 3.25
v -9.75 0.25 3.25
v -9.75 0.5 6
v -9.75 1 6
v -9.75 0.75 3.25
v -9.75 0.25 3.25
v -6.75 1 6
v -9.75 1 6
v -9.75 0.75 3.25
v -6.75 0.75 3.25
v -9.75 0 0.25
v -6.75 0 0.25
v -9.75 0.75 3.25
v -6.75 0.75 3.25
v -9.25 -1.25 0.25
v -9.75 -0.5 0.25
v -9.75 0.25 3.25
v -9.25 -0.5 3.25
v -9.25 -0.25 5.5
v -9.75 0.5 6
v -9.75 0.25 3.25
v -9.25 -0.5 3.25
v -7.25 -1.25 0.25
v -9.25 -1.25 0.25
v -9.25 -0.5 3.25
v -7.25 -0.5 3.25
v -7.25 -0.25 5.5
v -9.25 -0.25 5.5
v -9.25 -0.5 3.25
v -7.25 -0.5 3.25
v -6.75 -0.5 0.25
v -7.25 -1.25 0.25
v -7.25 -0.5 3.25
v -6.75 0.25 3.25
v -7.25 -0.25 5.5
v -6.75 0.5 6
v -7.25 -0.5 3.25
v -6.75 0.25 3.25
v -6.75 0 0.25
v -6.75 -0.5 0.25
v -6.75 0.25 3.25
v -6.75 0.75 3.25
v -6.75 0.5 6
v -6.75 1 6
v -6.75 0.25 3.25
v -6.75 0.75 3.25

vn 0 0 1
vn 0 0 1
vn 0 0 1
vn 0 0 1
vn 0 0 -1
vn 0 0 -1
vn 0 0 -1
vn 0 0 -1
vn 0 -0.7071067 -0.7071067
vn 0 -0.7071068 -0.7071068
vn 0 -0.7071068 -0.7071068
vn 0 -0.7071068 -0.7071068
vn 0 -0.7071067 0.7071067
vn 0 -0.7071068 0.7071068
vn 0 -0.7071068 0.7071068
vn 0 -0.7071068 0.7071068
vn -1 0 0
vn -1 0 0
vn -1 0 0
vn -1 0 0
vn 0 0.9883717 0.1520572
vn 0 0.9883717 0.1520572
vn 0 0.9883717 0.1520572
vn 0 0.9883717 0.1520572
vn -0.7819554 -0.6160861 -0.09478247
vn -0.803412 -0.5866182 -0.1020206
vn -0.803412 -0.5866182 -0.1020206
vn -0.8269768 -0.5513179 -0.1102636
vn 0 -0.9805807 -0.1961161
vn 0 -0.9805807 -0.1961161
vn 0 -0.9805807 -0.1961161
vn 0 -0.9805807 -0.1961161
vn 0.7819554 -0.6160861 -0.09478247
vn 0.803412 -0.5866182 -0.1020206
vn 0.8269768 -0.5513179 -0.1102636
vn 0.803412 -0.5866182 -0.1020206
vn 1 0 0
vn 1 0 0
vn 1 0 0
vn 1 0 0
vn -1 0 0
vn -1 0 0
vn -1 0 0
vn -1 0 0
vn -1 0 0
vn -1 0 0
vn -1 0 0
vn -1 0 0
vn 0 0.9958933 -0.09053575
vn 0 0.9958933 -0.09053575
vn 0 0.9958933 -0.09053575
vn 0 0.9958933 -0.09053575
vn 0 0.9701425 0.2425356
vn 0 0.9701425 0.2425356
vn 0 0.9701425 0.2425356
vn 0 0.9701425 0.2425356
vn -0.8702911 -0.476588 -0.1243273
vn -0.8632629 -0.4869688 -0.1328097
vn -0.8763094 -0.467365 -0.1168412
vn -0.8702911 -0.476588 -0.1243273
vn -0.8052422 -0.590511 0.05368282
vn -0.8052422 -0.590511 0.05368282
vn -0.8052422 -0.590511 0.05368282
vn -0.8052422 -0.590511 0.05368282
vn 0 -0.9647638 -0.2631174
vn 0 -0.9647638 -0.2631174
vn 0 -0.9647638 -0.2631174
vn 0 -0.9647638 -0.2631174
vn 0 -0.9958933 0.09053575
vn 0 -0.9958933 0.09053575
vn 0 -0.9958933 0.09053575
vn 0 -0.9958933 0.09053575
vn 0.8702911 -0.476588 -0.1243273
vn 0.8632629 -0.4869688 -0.1328097
vn 0.8702911 -0.476588 -0.1243273
vn 0.8763094 -0.467365 -0.1168412
vn 0.8052422 -0.590511 0.05368282
vn 0.8052422 -0.590511 0.05368282
vn 0.8052422 -0.590511 0.05368282
vn 0.8052422 -0.590511 0.05368282
vn 1 0 0
vn 1 0 0
vn 1 0 0
vn 1 0 0
vn 1 0 0
vn 1 0 0
vn 1 0 0
vn 1 0 0
vn -1 0 0
vn -1 0 0
vn -1 0 0
vn -1 0 0
vn -1 0 0
vn -1 0 0
vn -1 0 0
vn -1 0 0
vn 0 0.9958933 -0.09053575
vn 0 0.9958933 -0.09053575
vn 0 0.9958933 -0.09053575
vn 0 0.9958933 -0.09053575
vn 0 0.9701425 -0.2425356
vn 0 0.9701425 -0.2425356
vn 0 0.9701425 -0.2425356
vn 0 0.9701425 -0.2425356
vn -0.8241634 -0.5494422 0.1373606
vn -0.8241634 -0.5494422 0.1373606
vn -0.8241634 -0.5494422 0.1373606
vn -0.8241634 -0.5494422 0.1373606
vn -0.8218893 -0.5668202 0.05668202
vn -0.8143808 -0.5779477 0.0525407
vn -0.8218893 -0.5668202 0.05668202
vn -0.8304745 -0.5536497 0.06151663
vn 0 -0.9701425 0.2425356
vn 0 -0.9701425 0.2425356
vn 0 -0.9701425 0.2425356
vn 0 -0.9701425 0.2425356
vn 0 -0.9938837 0.1104315
vn 0 -0.9938837 0.1104315
vn 0 -0.9938837 0.1104315
vn 0 -0.9938837 0.1104315
vn 0.8241634 -0.5494422 0.1373606
vn 0.8241634 -0.5494422 0.1373606
vn 0.8241634 -0.5494422 0.1373606
vn 0.8241634 -0.5494422 0.1373606
vn 0.8218893 -0.5668202 0.05668202
vn 0.8143808 -0.5779477 0.0525407
vn 0.8304745 -0.5536497 0.06151663
vn 0.8218893 -0.5668202 0.05668202
vn 1 0 0
vn 1 0 0
vn 1 0 0
vn 1 0 0
vn 1 0 0
vn 1 0 0
vn 1 0 0
vn 1 0 0

vt 3 0
vt 0 0
vt 3 0.5
vt 0 0.5
vt 3 0
vt 0 0
vt 3 0.5
vt 0 0.5
vt 0 1.06066
vt 3 1.06066
vt 0.5 0
vt 2.5 0
vt 0 1.06066
vt 3 1.06066
vt 0.5 0
vt 2.5 0
vt 0 0.5
vt 0 1
vt 3.25 0.5
vt 3.25 0
vt 0 4.768372E-07
vt 3 4.768372E-07
vt 3 3.246995
vt 0 3.246995
vt 0 1.305617
vt 0.7519503 0.4060105
vt 3.249975 0.9012717
vt 3.251931 5.960464E-08
vt 2 0
vt 0 0
vt 0 2.501591
vt 2 2.501591
vt 14.74989 1.305616
vt 13.99794 0.4060105
vt 11.49796 5.960464E-08
vt 11.49991 0.9012718
vt 14.75 0.5
vt 14.75 1
vt 11.5 0
vt 11.5 0.5
vt 9 1.5
vt 9 1
vt 12 0.75
vt 12 0.25
vt 14.75 1
vt 14.75 0.5
vt 12 0.75
vt 12 0.25
vt 0 14.74974
vt 3 14.74974
vt 3 11.99832
vt 0 11.99832
vt 0 9.002792
vt 3 9.002792
vt 3 11.99832
vt 0 11.99832
vt 8.999931 1.737167
vt 8.50189 0.8347847
vt 11.99991 1.126486
vt 11.25187 0.2235482
vt 14.74989 1.338374
vt 14.00185 0.4354368
vt 11.99991 1.126486
vt 11.25187 0.2235482
vt 2 7.748356
vt 0 7.748356
vt 0 10.50075
vt 2 10.50075
vt 0 13.24993
vt 2 13.24993
vt 0 10.50075
vt 2 10.50075
vt 5.749956 1.737167
vt 6.247997 0.8347847
vt 3.498018 0.2235482
vt 2.749979 1.126486
vt 0.7480392 0.4354369
vt 0 1.338374
vt 3.498018 0.2235482
vt 2.749979 1.126486
vt 5.75 1.5
vt 5.75 1
vt 2.75 0.25
vt 2.75 0.75
vt 0 0.5
vt 0 1
vt 2.75 0.25
vt 2.75 0.75
vt 3.25 0
vt 3.25 0.5
vt 6.25 1.25
vt 6.25 0.75
vt 9 1
vt 9 1.5
vt 6.25 1.25
vt 6.25 0.75
vt 0 9.002792
vt 3 9.002792
vt 3 6.251366
vt 0 6.251366
vt 3 3.246995
vt 0 3.246995
vt 3 6.251366
vt 0 6.251366
vt 3.251931 5.960464E-08
vt 3.249975 0.9012717
vt 6.249953 1.525278
vt 6.251908 0.6240065
vt 8.50189 0.8347847
vt 8.999931 1.737167
vt 6.249953 1.525278
vt 6.251908 0.6240065
vt 2 2.501591
vt 0 2.501591
vt 0 5.49917
vt 2 5.49917
vt 2 7.748356
vt 0 7.748356
vt 0 5.49917
vt 2 5.49917
vt 11.49991 0.9012718
vt 11.49796 5.960464E-08
vt 8.49798 0.6240065
vt 8.499935 1.525278
vt 6.247997 0.8347847
vt 5.749956 1.737167
vt 8.49798 0.6240065
vt 8.499935 1.525278
vt 11.5 0.5
vt 11.5 0
vt 8.5 0.75
vt 8.5 1.25
vt 5.75 1
vt 5.75 1.5
vt 8.5 0.75
vt 8.5 1.25

usemtl Default_Prototype
usemap Default_Prototype
f 2/2/2 1/1/1 3/3/3
f 4/4/4 2/2/2 3/3/3
f 6/6/6 5/5/5 7/7/7
f 8/8/8 6/6/6 7/7/7
f 10/10/10 9/9/9 11/11/11
f 12/12/12 10/10/10 11/11/11
f 14/14/14 13/13/13 15/15/15
f 16/16/16 14/14/14 15/15/15
f 18/18/18 17/17/17 20/20/20
f 19/19/19 18/18/18 20/20/20
f 21/21/21 22/22/22 24/24/24
f 22/22/22 23/23/23 24/24/24
f 25/25/25 26/26/26 27/27/27
f 27/27/27 26/26/26 28/28/28
f 30/30/30 29/29/29 32/32/32
f 31/31/31 30/30/30 32/32/32
f 34/34/34 33/33/33 36/36/36
f 35/35/35 34/34/34 36/36/36
f 37/37/37 38/38/38 40/40/40
f 39/39/39 37/37/37 40/40/40
f 41/41/41 42/42/42 43/43/43
f 43/43/43 42/42/42 44/44/44
f 46/46/46 45/45/45 48/48/48
f 45/45/45 47/47/47 48/48/48
f 50/50/50 49/49/49 52/52/52
f 51/51/51 50/50/50 52/52/52
f 53/53/53 54/54/54 56/56/56
f 54/54/54 55/55/55 56/56/56
f 57/57/57 58/58/58 60/60/60
f 59/59/59 57/57/57 60/60/60
f 62/62/62 61/61/61 63/63/63
f 62/62/62 63/63/63 64/64/64
f 66/66/66 65/65/65 68/68/68
f 67/67/67 66/66/66 68/68/68
f 70/70/70 69/69/69 72/72/72
f 69/69/69 71/71/71 72/72/72
f 74/74/74 73/73/73 75/75/75
f 75/75/75 73/73/73 76/76/76
f 78/78/78 77/77/77 80/80/80
f 77/77/77 79/79/79 80/80/80
f 82/82/82 81/81/81 84/84/84
f 83/83/83 82/82/82 84/84/84
f 86/86/86 85/85/85 87/87/87
f 86/86/86 87/87/87 88/88/88
f 90/90/90 89/89/89 92/92/92
f 91/91/91 90/90/90 92/92/92
f 93/93/93 94/94/94 95/95/95
f 93/93/93 95/95/95 96/96/96
f 98/98/98 97/97/97 100/100/100
f 99/99/99 98/98/98 100/100/100
f 102/102/102 101/101/101 104/104/104
f 101/101/101 103/103/103 104/104/104
f 106/106/106 105/105/105 108/108/108
f 107/107/107 106/106/106 108/108/108
f 109/109/109 110/110/110 111/111/111
f 109/109/109 111/111/111 112/112/112
f 114/114/114 113/113/113 116/116/116
f 115/115/115 114/114/114 116/116/116
f 117/117/117 118/118/118 120/120/120
f 118/118/118 119/119/119 120/120/120
f 122/122/122 121/121/121 123/123/123
f 123/123/123 121/121/121 124/124/124
f 126/126/126 125/125/125 128/128/128
f 125/125/125 127/127/127 128/128/128
f 130/130/130 129/129/129 131/131/131
f 131/131/131 129/129/129 132/132/132
f 134/134/134 133/133/133 136/136/136
f 133/133/133 135/135/135 136/136/136
