mtllib ./platform_02.mtl
g pb-Cube-51986
v -34.25 0 11
v -37.25 0 11
v -34.25 0.5 11
v -37.25 0.5 11
v -37.25 0 -3
v -34.25 0 -3
v -37.25 0.5 -3
v -34.25 0.5 -3
v -34.25 0 -3
v -37.25 0 -3
v -34.75 -0.75 -2.25
v -36.75 -0.75 -2.25
v -37.25 0 11
v -34.25 0 11
v -36.75 -0.75 10.25
v -34.75 -0.75 10.25
v -37.25 0 -3
v -37.25 0.5 -3
v -37.5 0.5 -1.5
v -37.5 0 -1.5
v -34.25 0.5 -3
v -37.25 0.5 -3
v -37.5 0.5 -1.5
v -34 0.5 -1.5
v -37.25 0 -3
v -36.75 -0.75 -2.25
v -37.5 0 -1.5
v -37 -0.75 -1.5
v -34.75 -0.75 -2.25
v -36.75 -0.75 -2.25
v -37 -0.75 -1.5
v -34.5 -0.75 -1.5
v -34.25 0 -3
v -34.75 -0.75 -2.25
v -34.5 -0.75 -1.5
v -34 0 -1.5
v -34.25 0 -3
v -34.25 0.5 -3
v -34 0 -1.5
v -34 0.5 -1.5
v -37.25 0.5 11
v -37.25 0 11
v -37.5 0.5 9.75
v -37.5 0 9.75
v -34.25 0.5 11
v -37.25 0.5 11
v -37.5 0.5 9.75
v -34 0.5 9.75
v -37.25 0 11
v -36.75 -0.75 10.25
v -37.5 0 9.75
v -37 -0.75 9.25
v -36.75 -0.75 10.25
v -34.75 -0.75 10.25
v -37 -0.75 9.25
v -34.5 -0.75 9.25
v -34.75 -0.75 10.25
v -34.25 0 11
v -34.5 -0.75 9.25
v -34 0 9.75
v -34.25 0 11
v -34.25 0.5 11
v -34 0 9.75
v -34 0.5 9.75
v -37.5 0 9.75
v -37.5 0.5 9.75
v -39.25 0.5 8.5
v -39.25 0 8.5
v -35.25 0 5.75
v -36.25 0 5.75
v -36.75 0 5.5
v -34.75 0 5.5
v -37 -0.75 9.25
v -37.5 0 9.75
v -39.25 0 8.5
v -38.75 -0.75 8.25
v -34.5 -0.75 9.25
v -37 -0.75 9.25
v -38.75 -0.75 8.25
v -32.75 -0.75 8.25
v -34.5 -0.75 9.25
v -34 0 9.75
v -32.75 -0.75 8.25
v -32.25 0 8.5
v -34 0.5 9.75
v -34 0 9.75
v -32.25 0 8.5
v -32.25 0.5 8.5
v -37.5 0 -1.5
v -37.5 0.5 -1.5
v -39.25 0.5 -0.25
v -39.25 0 -0.25
v -36.25 0 2.5
v -35.25 0 2.5
v -36.75 0 2.75
v -34.75 0 2.75
v -37 -0.75 -1.5
v -37.5 0 -1.5
v -39.25 0 -0.25
v -38.75 -0.75 -0.5
v -34.5 -0.75 -1.5
v -37 -0.75 -1.5
v -38.75 -0.75 -0.5
v -32.75 -0.75 -0.5
v -34 0 -1.5
v -34.5 -0.75 -1.5
v -32.75 -0.75 -0.5
v -32.25 0 -0.25
v -34 0.5 -1.5
v -34 0 -1.5
v -32.25 0 -0.25
v -32.25 0.5 -0.25
v -39.25 0 -0.25
v -39.25 0.5 -0.25
v -39.25 0.5 2.5
v -39.25 0 2.5
v -34.75 0 2.75
v -36.75 0 2.75
v -36.75 0 3.75
v -34.25 0 3.75
v -39.25 0 -0.25
v -38.75 -0.75 -0.5
v -39.25 0 2.5
v -38.75 -0.75 2.25
v -32.75 -0.75 -0.5
v -38.75 -0.75 -0.5
v -38.75 -0.75 2.25
v -31.75 -0.75 2.25
v -32.25 0 -0.25
v -32.75 -0.75 -0.5
v -31.75 -0.75 2.25
v -31.25 0 2.5
v -32.25 0.5 -0.25
v -32.25 0 -0.25
v -31.25 0 2.5
v -31.25 0.5 2.5
v -39.25 0 2.5
v -39.25 0.5 2.5
v -40.25 0.5 6
v -40.25 0 6
v -39.25 0.5 8.5
v -39.25 0 8.5
v -40.25 0.5 6
v -40.25 0 6
v -34.75 0 5.5
v -36.75 0 5.5
v -37.25 0 4.75
v -34.75 0 4.75
v -34.25 0 3.75
v -36.75 0 3.75
v -37.25 0 4.75
v -34.75 0 4.75
v -39.25 0 2.5
v -38.75 -0.75 2.25
v -40.25 0 6
v -39.75 -0.75 5.75
v -39.25 0 8.5
v -38.75 -0.75 8.25
v -40.25 0 6
v -39.75 -0.75 5.75
v -31.75 -0.75 2.25
v -38.75 -0.75 2.25
v -39.75 -0.75 5.75
v -32.75 -0.75 5.75
v -38.75 -0.75 8.25
v -32.75 -0.75 8.25
v -39.75 -0.75 5.75
v -32.75 -0.75 5.75
v -31.25 0 2.5
v -31.75 -0.75 2.25
v -32.75 -0.75 5.75
v -32.25 0 6
v -32.75 -0.75 8.25
v -32.25 0 8.5
v -32.75 -0.75 5.75
v -32.25 0 6
v -31.25 0.5 2.5
v -31.25 0 2.5
v -32.25 0 6
v -32.25 0.5 6
v -32.25 0 8.5
v -32.25 0.5 8.5
v -32.25 0 6
v -32.25 0.5 6
v -37.5 0.5 -1.5
v -34 0.5 -1.5
v -37 0.5 0.25
v -34.5 0.5 0.25
v -34 0.5 -1.5
v -32.25 0.5 -0.25
v -34.5 0.5 0.25
v -33.25 0.5 1
v -39.25 0.5 -0.25
v -37.5 0.5 -1.5
v -38.25 0.5 1
v -37 0.5 0.25
v -32.25 0.5 -0.25
v -31.25 0.5 2.5
v -33.25 0.5 1
v -32.5 0.5 3
v -39.25 0.5 2.5
v -39.25 0.5 -0.25
v -38.25 0.5 3
v -38.25 0.5 1
v -31.25 0.5 2.5
v -32.25 0.5 6
v -32.5 0.5 3
v -33.25 0.5 5.5
v -40.25 0.5 6
v -39.25 0.5 2.5
v -39 0.5 5.5
v -38.25 0.5 3
v -32.25 0.5 6
v -32.25 0.5 8.5
v -33.25 0.5 5.5
v -33.25 0.5 7.25
v -39.25 0.5 8.5
v -40.25 0.5 6
v -38.25 0.5 7.25
v -39 0.5 5.5
v -34 0.5 9.75
v -37.5 0.5 9.75
v -34.5 0.5 8
v -37 0.5 8
v -37.5 0.5 9.75
v -39.25 0.5 8.5
v -37 0.5 8
v -38.25 0.5 7.25
v -32.25 0.5 8.5
v -34 0.5 9.75
v -33.25 0.5 7.25
v -34.5 0.5 8
v -37 0.5 0.25
v -34.5 0.5 0.25
v -36.52825 0.25 1.70225
v -34.95325 0.25 1.70225
v -34.5 0.5 0.25
v -33.25 0.5 1
v -34.95325 0.25 1.70225
v -34.16575 0.25 2.17475
v -38.25 0.5 1
v -37 0.5 0.25
v -37.31575 0.25 2.17475
v -36.52825 0.25 1.70225
v -33.25 0.5 1
v -32.5 0.5 3
v -34.16575 0.25 2.17475
v -33.69325 0.25 3.43475
v -38.25 0.5 3
v -38.25 0.5 1
v -37.31575 0.25 3.43475
v -37.31575 0.25 2.17475
v -32.5 0.5 3
v -33.25 0.5 5.5
v -33.69325 0.25 3.43475
v -34.16575 0.25 5.00975
v -39 0.5 5.5
v -38.25 0.5 3
v -37.78825 0.25 5.00975
v -37.31575 0.25 3.43475
v -33.25 0.5 5.5
v -33.25 0.5 7.25
v -34.16575 0.25 5.00975
v -34.16575 0.25 6.11225
v -38.25 0.5 7.25
v -39 0.5 5.5
v -37.31575 0.25 6.11225
v -37.78825 0.25 5.00975
v -34.5 0.5 8
v -37 0.5 8
v -34.95325 0.25 6.584749
v -36.52825 0.25 6.584749
v -37 0.5 8
v -38.25 0.5 7.25
v -36.52825 0.25 6.584749
v -37.31575 0.25 6.11225
v -33.25 0.5 7.25
v -34.5 0.5 8
v -34.16575 0.25 6.11225
v -34.95325 0.25 6.584749
v -36.52825 0.25 1.70225
v -34.95325 0.25 1.70225
v -36.25 0 2.5
v -35.25 0 2.5
v -34.95325 0.25 1.70225
v -34.16575 0.25 2.17475
v -35.25 0 2.5
v -34.75 0 2.75
v -37.31575 0.25 2.17475
v -36.52825 0.25 1.70225
v -36.75 0 2.75
v -36.25 0 2.5
v -34.16575 0.25 2.17475
v -33.69325 0.25 3.43475
v -34.75 0 2.75
v -34.25 0 3.75
v -37.31575 0.25 3.43475
v -37.31575 0.25 2.17475
v -36.75 0 3.75
v -36.75 0 2.75
v -33.69325 0.25 3.43475
v -34.16575 0.25 5.00975
v -34.25 0 3.75
v -34.75 0 4.75
v -37.78825 0.25 5.00975
v -37.31575 0.25 3.43475
v -37.25 0 4.75
v -36.75 0 3.75
v -34.16575 0.25 5.00975
v -34.16575 0.25 6.11225
v -34.75 0 4.75
v -34.75 0 5.5
v -37.31575 0.25 6.11225
v -37.78825 0.25 5.00975
v -36.75 0 5.5
v -37.25 0 4.75
v -34.95325 0.25 6.584749
v -36.52825 0.25 6.584749
v -35.25 0 5.75
v -36.25 0 5.75
v -36.52825 0.25 6.584749
v -37.31575 0.25 6.11225
v -36.25 0 5.75
v -36.75 0 5.5
v -34.16575 0.25 6.11225
v -34.95325 0.25 6.584749
v -34.75 0 5.5
v -35.25 0 5.75

vn 0 0 1
vn 0 0 1
vn 0 0 1
vn 0 0 1
vn 0 0 -1
vn 0 0 -1
vn 0 0 -1
vn 0 0 -1
vn 0 -0.7071067 -0.7071067
vn 0 -0.7071068 -0.7071068
vn 0 -0.7071068 -0.7071068
vn 0 -0.7071068 -0.7071068
vn 0 -0.7071067 0.7071067
vn 0 -0.7071068 0.7071068
vn 0 -0.7071068 0.7071068
vn 0 -0.7071068 0.7071068
vn -0.9863939 0 -0.164399
vn -0.9863939 0 -0.164399
vn -0.9863939 0 -0.164399
vn -0.9863939 0 -0.164399
vn 0 1 0
vn 0 1 0
vn 0 1 0
vn 0 1 0
vn -0.7620007 -0.6350006 -0.1270001
vn -0.7774816 -0.6047079 -0.1727737
vn -0.7774816 -0.6047079 -0.1727737
vn -0.8017837 -0.5345225 -0.2672613
vn 0 -1 0
vn 0 -1 0
vn 0 -1 0
vn 0 -1 0
vn 0.7620007 -0.6350006 -0.1270001
vn 0.7774816 -0.6047079 -0.1727737
vn 0.8017837 -0.5345225 -0.2672613
vn 0.7774816 -0.6047079 -0.1727737
vn 0.9863939 0 -0.164399
vn 0.9863939 0 -0.164399
vn 0.9863939 0 -0.164399
vn 0.9863939 0 -0.164399
vn -0.9805807 0 0.1961161
vn -0.9805807 0 0.1961161
vn -0.9805807 0 0.1961161
vn -0.9805807 0 0.1961161
vn 0 1 0
vn 0 1 0
vn 0 1 0
vn 0 1 0
vn -0.7472032 -0.6475762 0.1494406
vn -0.7505794 -0.6393825 0.1667954
vn -0.7505794 -0.6393825 0.1667954
vn -0.7544335 -0.6286946 0.1886084
vn 0 -1 0
vn 0 -1 0
vn 0 -1 0
vn 0 -1 0
vn 0.7505794 -0.6393825 0.1667954
vn 0.7472032 -0.6475762 0.1494406
vn 0.7544335 -0.6286946 0.1886084
vn 0.7505794 -0.6393825 0.1667954
vn 0.9805807 0 0.1961161
vn 0.9805807 0 0.1961161
vn 0.9805807 0 0.1961161
vn 0.9805807 0 0.1961161
vn -0.5812382 0 0.8137335
vn -0.5812382 0 0.8137335
vn -0.5812382 0 0.8137335
vn -0.5812382 0 0.8137335
vn 0 1 0
vn 0 1 0
vn 0 1 0
vn 0 1 0
vn -0.4261623 -0.6155678 0.6629192
vn -0.4256283 -0.6810052 0.5958796
vn -0.4261623 -0.6155678 0.6629192
vn -0.4216371 -0.5270463 0.7378649
vn 0 -1 0
vn 0 -1 0
vn 0 -1 0
vn 0 -1 0
vn 0.4261623 -0.6155678 0.6629192
vn 0.4256283 -0.6810052 0.5958796
vn 0.4216371 -0.5270463 0.7378649
vn 0.4261623 -0.6155678 0.6629192
vn 0.5812382 0 0.8137335
vn 0.5812382 0 0.8137335
vn 0.5812382 0 0.8137335
vn 0.5812382 0 0.8137335
vn -0.5812382 0 -0.8137335
vn -0.5812382 0 -0.8137335
vn -0.5812382 0 -0.8137335
vn -0.5812382 0 -0.8137335
vn 0 1 0
vn 0 1 0
vn 0 1 0
vn 0 1 0
vn -0.4710412 -0.3140275 -0.8243221
vn -0.5280937 -0.2151493 -0.8214791
vn -0.5773503 -0.1154701 -0.8082904
vn -0.5280937 -0.2151493 -0.8214791
vn 0 -1 0
vn 0 -1 0
vn 0 -1 0
vn 0 -1 0
vn 0.5280937 -0.2151493 -0.8214791
vn 0.4710412 -0.3140275 -0.8243221
vn 0.5280937 -0.2151493 -0.8214791
vn 0.5773503 -0.1154701 -0.8082904
vn 0.5812382 0 -0.8137335
vn 0.5812382 0 -0.8137335
vn 0.5812382 0 -0.8137335
vn 0.5812382 0 -0.8137335
vn -1 0 0
vn -1 0 0
vn -1 0 0
vn -1 0 0
vn 0 1 0
vn 0 1 0
vn 0 1 0
vn 0 1 0
vn -0.8320503 -0.5547002 0
vn -0.8320503 -0.5547002 0
vn -0.8320503 -0.5547002 0
vn -0.8320503 -0.5547002 0
vn 0 -1 0
vn 0 -1 0
vn 0 -1 0
vn 0 -1 0
vn 0.8363145 -0.4561715 -0.3041143
vn 0.8363145 -0.4561715 -0.3041143
vn 0.8363145 -0.4561715 -0.3041143
vn 0.8363145 -0.4561715 -0.3041143
vn 0.9397935 0 -0.3417431
vn 0.9397935 0 -0.3417431
vn 0.9397935 0 -0.3417431
vn 0.9397935 0 -0.3417431
vn -0.9615239 0 -0.2747211
vn -0.9615239 0 -0.2747211
vn -0.9615239 0 -0.2747211
vn -0.9615239 0 -0.2747211
vn -0.9284767 0 0.3713907
vn -0.9284767 0 0.3713907
vn -0.9284767 0 0.3713907
vn -0.9284767 0 0.3713907
vn 0 1 0
vn 0 1 0
vn 0 1 0
vn 0 1 0
vn 0 1 0
vn 0 1 0
vn 0 1 0
vn 0 1 0
vn -0.8427009 -0.4815434 -0.2407717
vn -0.8427009 -0.4815434 -0.2407717
vn -0.8427009 -0.4815434 -0.2407717
vn -0.8427009 -0.4815434 -0.2407717
vn -0.745356 -0.5962849 0.2981424
vn -0.745356 -0.5962849 0.2981424
vn -0.745356 -0.5962849 0.2981424
vn -0.745356 -0.5962849 0.2981424
vn 0 -1 0
vn 0 -1 0
vn 0 -1 0
vn 0 -1 0
vn 0 -1 0
vn 0 -1 0
vn 0 -1 0
vn 0 -1 0
vn 0.7756527 -0.5909735 0.2216151
vn 0.7756527 -0.5909735 0.2216151
vn 0.7756527 -0.5909735 0.2216151
vn 0.7756527 -0.5909735 0.2216151
vn 0.8320503 -0.5547003 0
vn 0.8320503 -0.5547003 0
vn 0.8320503 -0.5547003 0
vn 0.8320503 -0.5547003 0
vn 0.9615239 0 0.2747211
vn 0.9615239 0 0.2747211
vn 0.9615239 0 0.2747211
vn 0.9615239 0 0.2747211
vn 1 0 0
vn 1 0 0
vn 1 0 0
vn 1 0 0
vn 0 1 0
vn 0 1 0
vn 0 1 0
vn 0 1 0
vn 0 1 0
vn 0 1 0
vn 0 1 0
vn 0 1 0
vn 0 0.9999999 0
vn 0 1 0
vn 0 1 0
vn 0 0.9999999 0
vn 0 1 0
vn 0 0.9999999 0
vn 0 0.9999999 0
vn 0 1 0
vn 0 1 0
vn 0 1 0
vn 0 1 0
vn 0 1 0
vn 0 1 0
vn 0 1 0
vn 0 1 0
vn 0 1 0
vn 0 1 0
vn 0 1 0
vn 0 1 0
vn 0 1 0
vn 0 1 0
vn 0 1 0
vn 0 1 0
vn 0 1 0
vn 0 1 0
vn 0 1 0
vn 0 1 0
vn 0 0.9999999 0
vn 0 1 0
vn 0 1 0
vn 0 1 0
vn 0 1 0
vn 0 1 0
vn 0 1 0
vn 0 1 0
vn 0 1 0
vn 0 0.9999999 0
vn 0 1 0
vn 0 1 0
vn 0 0.9999999 0
vn 0 0.9855042 0.1696512
vn 0 0.9855042 0.1696512
vn 0 0.9855042 0.1696512
vn 0 0.9855042 0.1696512
vn -0.0857792 0.9860034 0.1429653
vn -0.0857792 0.9860035 0.1429653
vn -0.0857792 0.9860035 0.1429653
vn -0.08577921 0.9860035 0.1429653
vn 0.08524562 0.9861783 0.142076
vn 0.08524561 0.9861782 0.142076
vn 0.08524561 0.9861782 0.142076
vn 0.08524562 0.9861783 0.142076
vn -0.1808563 0.9811683 0.06782112
vn -0.1808563 0.9811684 0.06782114
vn -0.1808563 0.9811684 0.06782114
vn -0.1808563 0.9811683 0.06782115
vn 0.2584992 0.9660115 0
vn 0.2584992 0.9660114 0
vn 0.2584992 0.9660114 0
vn 0.2584992 0.9660115 0
vn -0.2284347 0.9711443 -0.0685304
vn -0.2284347 0.9711443 -0.0685304
vn -0.2284347 0.9711443 -0.0685304
vn -0.2284346 0.9711443 -0.06853041
vn 0.2280603 0.9712402 0.06841808
vn 0.2280603 0.9712402 0.06841807
vn 0.2280603 0.9712402 0.06841807
vn 0.2280603 0.9712402 0.06841806
vn -0.2633625 0.9646969 0
vn -0.2633625 0.964697 0
vn -0.2633625 0.964697 0
vn -0.2633625 0.964697 0
vn 0.1726951 0.9821907 -0.07401218
vn 0.1726951 0.9821907 -0.07401215
vn 0.1726951 0.9821907 -0.07401215
vn 0.1726951 0.9821908 -0.07401212
vn 0 0.9847538 -0.1739539
vn 0 0.9847538 -0.1739539
vn 0 0.9847538 -0.1739539
vn 0 0.9847537 -0.1739539
vn 0.08705018 0.9855825 -0.1450836
vn 0.08705015 0.9855826 -0.1450837
vn 0.08705015 0.9855826 -0.1450837
vn 0.08705009 0.9855826 -0.1450838
vn -0.08760637 0.9853963 -0.1460106
vn -0.08760629 0.9853964 -0.1460106
vn -0.08760629 0.9853964 -0.1460106
vn -0.08760616 0.9853964 -0.1460106
vn 0 0.9542402 0.2990412
vn 0 0.9542402 0.2990412
vn 0 0.9542402 0.2990412
vn 0 0.9542402 0.2990412
vn -0.1472866 0.9581479 0.2454776
vn -0.1436365 0.9559563 0.2559611
vn -0.1436365 0.9559563 0.2559611
vn -0.137167 0.9518015 0.274334
vn 0.1562436 0.9527732 0.260406
vn 0.1451102 0.9550264 0.2585873
vn 0.1451102 0.9550264 0.2585873
vn 0.1278536 0.9582626 0.2557072
vn -0.2964369 0.948561 0.1111639
vn -0.3089336 0.9417472 0.1329371
vn -0.3089336 0.9417472 0.1329371
vn -0.3258988 0.9312558 0.1629494
vn 0.4041874 0.9146762 0
vn 0.4041874 0.9146762 0
vn 0.4041874 0.9146762 0
vn 0.4041874 0.9146762 0
vn -0.4710023 0.8707417 -0.1413007
vn -0.4028924 0.9025103 -0.1521603
vn -0.4028924 0.9025103 -0.1521603
vn -0.3259978 0.9312125 -0.1629989
vn 0.4724352 0.869895 0.1417305
vn 0.4014549 0.9032421 0.1516174
vn 0.4014549 0.9032421 0.1516174
vn 0.3223737 0.9327884 0.1611868
vn -0.3933971 0.9193687 0
vn -0.3933971 0.9193687 0
vn -0.3933971 0.9193687 0
vn -0.393397 0.9193687 0
vn 0.2868074 0.95007 -0.1229173
vn 0.3010724 0.940412 -0.1580528
vn 0.3010724 0.940412 -0.1580528
vn 0.3237236 0.9212093 -0.2158157
vn 0 0.9579603 -0.2869006
vn 0 0.9579604 -0.2869006
vn 0 0.9579604 -0.2869006
vn 0 0.9579604 -0.2869006
vn 0.1437791 0.9601582 -0.2396325
vn 0.1399849 0.9582154 -0.2494544
vn 0.1399849 0.9582154 -0.2494544
vn 0.1332978 0.9545462 -0.2665957
vn -0.149109 0.9570823 -0.2485155
vn -0.1386085 0.9590505 -0.2470016
vn -0.1386085 0.9590505 -0.2470016
vn -0.122299 0.9618809 -0.244598

vt 3 0
vt 0 0
vt 3 0.5
vt 0 0.5
vt 3 0
vt 0 0
vt 3 0.5
vt 0 0.5
vt 0 1.06066
vt 3 1.06066
vt 0.5 0
vt 2.5 0
vt 0 1.060661
vt 3 1.060661
vt 0.5 9.536743E-07
vt 2.5 9.536743E-07
vt -4.768372E-07 0
vt -4.768372E-07 0.5
vt 1.494328 0.5
vt 1.494328 0
vt 0.25 0
vt 3.25 0
vt 3.5 1.5
vt 0 1.5
vt -4.768372E-07 1.154068
vt 0.7342525 0.2421696
vt 1.506985 1.282269
vt 1.491593 0.3849019
vt 5 0
vt 3 0
vt 2.75 0.75
vt 5.25 0.75
vt 13.9753 1.388465
vt 13.25631 0.4631561
vt 12.49279 0.5910858
vt 12.4631 1.488606
vt 13.99976 0
vt 13.99976 0.5
vt 12.49832 0
vt 12.49832 0.5
vt 13.99682 0.5
vt 13.99682 0
vt 12.74177 0.5
vt 12.74177 0
vt 0.25 14
vt 3.25 14
vt 3.5 12.75
vt 0 12.75
vt 13.99337 0.8828375
vt 13.22833 1.192093E-07
vt 12.75165 1.064317
vt 12.2365 0.1766361
vt 3 12.5
vt 5 12.5
vt 2.75 11.5
vt 5.25 11.5
vt 0.778367 0
vt 0 0.8697305
vt 1.761757 0.1927714
vt 1.232949 1.071765
vt 0 0
vt 0 0.5
vt 1.248515 0
vt 1.248515 0.5
vt 12.74177 0
vt 12.74177 0.5
vt 11.45474 0.5
vt 11.45474 0
vt 0.5 0.25
vt 1.5 0.25
vt 2 0
vt 0 0
vt 12.2365 0.1766361
vt 12.75165 1.064317
vt 11.55612 2.189371
vt 11.29084 1.296847
vt 5.25 11.5
vt 2.75 11.5
vt 1 10.5
vt 7 10.5
vt 1.761757 0.1927714
vt 1.232949 1.071765
vt 2.656075 1.319857
vt 2.376826 2.208114
vt 1.248515 0.5
vt 1.248515 0
vt 2.48825 0
vt 2.48825 0.5
vt 1.494328 0
vt 1.494328 0.5
vt 2.706727 0.5
vt 2.706727 0
vt 1.5 0
vt 0.5 0
vt 2 0.25
vt 0 0.25
vt 1.491593 0.3849019
vt 1.506985 1.282269
vt 2.810264 2.358889
vt 2.54499 1.466365
vt 5.25 0.75
vt 2.75 0.75
vt 1 1.75
vt 7 1.75
vt 12.4631 1.488606
vt 12.49279 0.5910858
vt 11.39064 1.644067
vt 11.11139 2.532323
vt 12.49832 0.5
vt 12.49832 0
vt 11.2381 0
vt 11.2381 0.5
vt 2.706727 0
vt 2.706727 0.5
vt 5.456101 0.5
vt 5.456101 0
vt 0.5 0
vt 2.5 0
vt 2.5 1
vt 0 1
vt 2.810264 2.358889
vt 2.54499 1.466365
vt 5.55896 2.305612
vt 5.293687 1.413088
vt 7 1.75
vt 1 1.75
vt 1 4.5
vt 8 4.5
vt 11.11139 2.532323
vt 11.39064 1.644067
vt 8.586107 2.165048
vt 8.306858 3.053305
vt 11.2381 0.5
vt 11.2381 0
vt 8.482292 0
vt 8.482292 0.5
vt 5.456101 0
vt 5.456101 0.5
vt 8.933982 0.5
vt 8.933982 0
vt 11.45474 0.5
vt 11.45474 0
vt 8.933982 0.5
vt 8.933982 0
vt 0 0.75
vt 2 0.75
vt 2.5 0
vt 0 0
vt 0 0
vt 2.5 0
vt 3 1
vt 0.5 1
vt 5.55896 2.305612
vt 5.293687 1.413088
vt 9.088085 2.866854
vt 8.822811 1.97433
vt 11.55612 2.189371
vt 11.29084 1.296847
vt 9.088085 2.866854
vt 8.822811 1.97433
vt 8 4.5
vt 1 4.5
vt 0 8
vt 7 8
vt 1 10.5
vt 7 10.5
vt 0 8
vt 7 8
vt 8.306858 3.053305
vt 8.586107 2.165048
vt 5.151664 1.412488
vt 4.872415 2.300745
vt 2.656075 1.319857
vt 2.376826 2.208114
vt 5.151664 1.412488
vt 4.872415 2.300745
vt 8.482292 0.5
vt 8.482292 0
vt 4.988207 0
vt 4.988207 0.5
vt 2.48825 0
vt 2.48825 0.5
vt 4.988207 0
vt 4.988207 0.5
vt 3.5 0
vt 0 0
vt 3 1.75
vt 0.5 1.75
vt 1.75 0
vt 0 1.25
vt 2.25 1.75
vt 1 2.5
vt 2.25 1.25
vt 0.5 0
vt 1.25 2.5
vt 0 1.75
vt 1 0
vt 0 2.75
vt 2 1.25
vt 1.25 3.25
vt 1 2.75
vt 1 0
vt 0 3.25
vt 0 1.25
vt 0 0
vt 1 3.5
vt 1.25 0.5
vt 2 3
vt 2 3.5
vt 1 0
vt 0.75 3
vt 0 0.5
vt 0 0.5
vt 0 3
vt 1 0
vt 1 1.75
vt 1 3
vt 2 0.5
vt 0 1.75
vt 0.75 0
vt 0 1.75
vt 3.5 1.75
vt 0.5 0
vt 3 0
vt 0.5 2.5
vt 2.25 1.25
vt 0 0.75
vt 1.25 0
vt 0 1.25
vt 1.75 2.5
vt 1 0
vt 2.25 0.75
vt 2.5 0
vt 0 0
vt 2.02825 1.473611
vt 0.4532501 1.473611
vt 1.245296 0
vt 0 0.7577844
vt 1.718508 1.467323
vt 0.9339716 1.944727
vt 1.736883 0.7576859
vt 0.4915271 -2.384186E-07
vt 0.7845745 1.944475
vt 0 1.467133
vt 0.7375745 2.384186E-07
vt 0 2.004616
vt 1.683471 1.177462
vt 1.218799 2.440369
vt 0.9671211 2
vt 0.9671211 2.384186E-07
vt 0 2.43475
vt 0 1.174751
vt 0 0
vt 0.7300746 2.505891
vt 1.218792 0.4357748
vt 1.678739 2.014486
vt 1.696802 2.505872
vt 0.966661 0
vt 0.4599884 2.014471
vt -2.384186E-07 0.4357715
vt 0 0.4902496
vt 0 2.24025
vt 0.949262 -4.768372E-07
vt 0.949262 1.1025
vt 0.9634273 2.246411
vt 1.702096 0.4915981
vt -2.384186E-07 1.105532
vt 0.4653611 -4.768372E-07
vt 0 1.437162
vt 2.5 1.437162
vt 0.4532501 0
vt 2.02825 0
vt 0.4919159 1.907936
vt 1.737069 1.149916
vt 0 0.4775505
vt 0.7844465 -9.536743E-07
vt 0 1.150075
vt 1.245089 1.908199
vt 0.9342912 0
vt 1.718697 0.4776173
vt 1.575 0
vt -5.960464E-08 0
vt 1.29675 0.8360052
vt 0.2967499 0.8360052
vt 0.7783574 -2.384186E-07
vt 0 0.4874136
vt 1.109646 0.8229294
vt 0.6154509 1.083928
vt 1.092159 0.4893839
vt 0.3150392 -2.384186E-07
vt 0.4934096 1.085189
vt 0 0.8227441
vt 0.4509903 0
vt 0 1.267858
vt 1.083215 0.5788369
vt 0.6059762 1.589219
vt 0.618525 1.26
vt 0.618525 0
vt 0 1.57525
vt 0 0.5752497
vt 5.960464E-08 0
vt 0.4155954 1.590962
vt 0.6086426 0.3184447
vt 1.048426 1.342025
vt 1.031692 1.591061
vt 0.6164749 -4.768372E-07
vt 0.4393826 1.328662
vt -2.384186E-07 0.3049359
vt 0 0.2597499
vt 0 1.36225
vt 0.6354903 0
vt 0.6354903 0.75
vt 0.6138589 1.379004
vt 1.066197 0.2680783
vt 0 0.7620745
vt 0.4786646 4.768372E-07
vt -5.960464E-08 0.8713818
vt 1.575 0.8713818
vt 0.2967499 0
vt 1.29675 0
vt 0.3122051 1.12026
vt 1.091022 0.6335816
vt -2.384186E-07 0.2604599
vt 0.4944863 0
vt 0 0.6320801
vt 0.7781132 1.119883
vt 0.6157705 0
vt 1.109811 0.2612848

usemtl Default_Prototype
usemap Default_Prototype
f 2/2/2 1/1/1 3/3/3
f 4/4/4 2/2/2 3/3/3
f 6/6/6 5/5/5 7/7/7
f 8/8/8 6/6/6 7/7/7
f 10/10/10 9/9/9 11/11/11
f 12/12/12 10/10/10 11/11/11
f 14/14/14 13/13/13 15/15/15
f 16/16/16 14/14/14 15/15/15
f 18/18/18 17/17/17 20/20/20
f 19/19/19 18/18/18 20/20/20
f 21/21/21 22/22/22 24/24/24
f 22/22/22 23/23/23 24/24/24
f 25/25/25 26/26/26 27/27/27
f 27/27/27 26/26/26 28/28/28
f 30/30/30 29/29/29 32/32/32
f 31/31/31 30/30/30 32/32/32
f 34/34/34 33/33/33 36/36/36
f 35/35/35 34/34/34 36/36/36
f 37/37/37 38/38/38 40/40/40
f 39/39/39 37/37/37 40/40/40
f 42/42/42 41/41/41 44/44/44
f 41/41/41 43/43/43 44/44/44
f 46/46/46 45/45/45 48/48/48
f 47/47/47 46/46/46 48/48/48
f 50/50/50 49/49/49 51/51/51
f 50/50/50 51/51/51 52/52/52
f 54/54/54 53/53/53 56/56/56
f 53/53/53 55/55/55 56/56/56
f 58/58/58 57/57/57 60/60/60
f 57/57/57 59/59/59 60/60/60
f 62/62/62 61/61/61 64/64/64
f 61/61/61 63/63/63 64/64/64
f 65/65/65 66/66/66 68/68/68
f 66/66/66 67/67/67 68/68/68
f 70/70/70 69/69/69 71/71/71
f 71/71/71 69/69/69 72/72/72
f 73/73/73 74/74/74 75/75/75
f 73/73/73 75/75/75 76/76/76
f 77/77/77 78/78/78 80/80/80
f 78/78/78 79/79/79 80/80/80
f 82/82/82 81/81/81 84/84/84
f 81/81/81 83/83/83 84/84/84
f 85/85/85 86/86/86 88/88/88
f 86/86/86 87/87/87 88/88/88
f 90/90/90 89/89/89 92/92/92
f 91/91/91 90/90/90 92/92/92
f 94/94/94 93/93/93 96/96/96
f 93/93/93 95/95/95 96/96/96
f 98/98/98 97/97/97 100/100/100
f 99/99/99 98/98/98 100/100/100
f 102/102/102 101/101/101 104/104/104
f 103/103/103 102/102/102 104/104/104
f 106/106/106 105/105/105 107/107/107
f 107/107/107 105/105/105 108/108/108
f 110/110/110 109/109/109 112/112/112
f 111/111/111 110/110/110 112/112/112
f 114/114/114 113/113/113 116/116/116
f 115/115/115 114/114/114 116/116/116
f 117/117/117 118/118/118 120/120/120
f 118/118/118 119/119/119 120/120/120
f 121/121/121 122/122/122 124/124/124
f 123/123/123 121/121/121 124/124/124
f 126/126/126 125/125/125 128/128/128
f 127/127/127 126/126/126 128/128/128
f 130/130/130 129/129/129 131/131/131
f 131/131/131 129/129/129 132/132/132
f 134/134/134 133/133/133 136/136/136
f 135/135/135 134/134/134 136/136/136
f 138/138/138 137/137/137 140/140/140
f 139/139/139 138/138/138 140/140/140
f 142/142/142 141/141/141 143/143/143
f 142/142/142 143/143/143 144/144/144
f 146/146/146 145/145/145 148/148/148
f 147/147/147 146/146/146 148/148/148
f 149/149/149 150/150/150 152/152/152
f 150/150/150 151/151/151 152/152/152
f 153/153/153 154/154/154 156/156/156
f 155/155/155 153/153/153 156/156/156
f 158/158/158 157/157/157 159/159/159
f 158/158/158 159/159/159 160/160/160
f 162/162/162 161/161/161 164/164/164
f 163/163/163 162/162/162 164/164/164
f 166/166/166 165/165/165 167/167/167
f 166/166/166 167/167/167 168/168/168
f 170/170/170 169/169/169 171/171/171
f 171/171/171 169/169/169 172/172/172
f 174/174/174 173/173/173 176/176/176
f 173/173/173 175/175/175 176/176/176
f 178/178/178 177/177/177 180/180/180
f 179/179/179 178/178/178 180/180/180
f 182/182/182 181/181/181 183/183/183
f 182/182/182 183/183/183 184/184/184
f 186/186/186 185/185/185 187/187/187
f 188/188/188 186/186/186 187/187/187
f 190/190/190 189/189/189 191/191/191
f 192/192/192 190/190/190 191/191/191
f 194/194/194 193/193/193 195/195/195
f 196/196/196 194/194/194 195/195/195
f 198/198/198 197/197/197 199/199/199
f 200/200/200 198/198/198 199/199/199
f 202/202/202 201/201/201 203/203/203
f 204/204/204 202/202/202 203/203/203
f 206/206/206 205/205/205 207/207/207
f 208/208/208 206/206/206 207/207/207
f 210/210/210 209/209/209 211/211/211
f 212/212/212 210/210/210 211/211/211
f 214/214/214 213/213/213 215/215/215
f 216/216/216 214/214/214 215/215/215
f 218/218/218 217/217/217 219/219/219
f 220/220/220 218/218/218 219/219/219
f 222/222/222 221/221/221 223/223/223
f 224/224/224 222/222/222 223/223/223
f 226/226/226 225/225/225 227/227/227
f 228/228/228 226/226/226 227/227/227
f 230/230/230 229/229/229 231/231/231
f 232/232/232 230/230/230 231/231/231
f 234/234/234 233/233/233 235/235/235
f 236/236/236 234/234/234 235/235/235
f 238/238/238 237/237/237 239/239/239
f 240/240/240 238/238/238 239/239/239
f 242/242/242 241/241/241 243/243/243
f 244/244/244 242/242/242 243/243/243
f 246/246/246 245/245/245 247/247/247
f 248/248/248 246/246/246 247/247/247
f 250/250/250 249/249/249 251/251/251
f 252/252/252 250/250/250 251/251/251
f 254/254/254 253/253/253 255/255/255
f 256/256/256 254/254/254 255/255/255
f 258/258/258 257/257/257 259/259/259
f 260/260/260 258/258/258 259/259/259
f 262/262/262 261/261/261 263/263/263
f 264/264/264 262/262/262 263/263/263
f 266/266/266 265/265/265 267/267/267
f 268/268/268 266/266/266 267/267/267
f 270/270/270 269/269/269 271/271/271
f 272/272/272 270/270/270 271/271/271
f 274/274/274 273/273/273 275/275/275
f 276/276/276 274/274/274 275/275/275
f 278/278/278 277/277/277 279/279/279
f 280/280/280 278/278/278 279/279/279
f 282/282/282 281/281/281 283/283/283
f 284/284/284 282/282/282 283/283/283
f 286/286/286 285/285/285 287/287/287
f 288/288/288 286/286/286 287/287/287
f 290/290/290 289/289/289 291/291/291
f 292/292/292 290/290/290 291/291/291
f 294/294/294 293/293/293 295/295/295
f 296/296/296 294/294/294 295/295/295
f 298/298/298 297/297/297 299/299/299
f 300/300/300 298/298/298 299/299/299
f 302/302/302 301/301/301 303/303/303
f 304/304/304 302/302/302 303/303/303
f 306/306/306 305/305/305 307/307/307
f 308/308/308 306/306/306 307/307/307
f 310/310/310 309/309/309 311/311/311
f 312/312/312 310/310/310 311/311/311
f 314/314/314 313/313/313 315/315/315
f 316/316/316 314/314/314 315/315/315
f 318/318/318 317/317/317 319/319/319
f 320/320/320 318/318/318 319/319/319
f 322/322/322 321/321/321 323/323/323
f 324/324/324 322/322/322 323/323/323
f 326/326/326 325/325/325 327/327/327
f 328/328/328 326/326/326 327/327/327
