mtllib ./platform_03.mtl
g pb-Cube-51986
v -21 0 13
v -24 0 13
v -21 0.5 13
v -24 0.5 13
v -24 0 -3
v -21 0 -3
v -24 0.5 -3
v -21 0.5 -3
v -21 0 -3
v -24 0 -3
v -21.5 -0.75 -2.25
v -23.5 -0.75 -2.25
v -24 0 13
v -21 0 13
v -23.5 -0.75 12.25
v -21.5 -0.75 12.25
v -21 0.5 -3
v -21 0 -3
v -21 0.25 1
v -21 -0.25 1
v -24 0.5 -3
v -21 0.5 -3
v -21 0.25 1
v -24 0.25 1
v -21 0 -3
v -21.5 -0.75 -2.25
v -21 -0.25 1
v -21.5 -1 1.5
v -21.5 -0.75 -2.25
v -23.5 -0.75 -2.25
v -21.5 -1 1.5
v -23.5 -1 1.5
v -23.5 -0.75 -2.25
v -24 0 -3
v -23.5 -1 1.5
v -24 -0.25 1
v -24 0 -3
v -24 0.5 -3
v -24 -0.25 1
v -24 0.25 1
v -21 0.5 13
v -24 0.5 13
v -24 0.5 9
v -21 0.5 9
v -24 0.5 13
v -24 0 13
v -24 0.5 9
v -24 0 9
v -21 0 13
v -21 0.5 13
v -21 0.5 9
v -21 0 9
v -21.5 -0.75 12.25
v -21 0 13
v -21 0 9
v -21.5 -0.75 8.5
v -23.5 -0.75 12.25
v -21.5 -0.75 12.25
v -21.5 -0.75 8.5
v -23.5 -0.75 8.5
v -24 0 13
v -23.5 -0.75 12.25
v -23.5 -0.75 8.5
v -24 0 9
v -21 0.5 9
v -24 0.5 9
v -24 1.75 7
v -21 1.75 7
v -24 2 5
v -21 2 5
v -24 1.75 7
v -21 1.75 7
v -24 1.5 5
v -24 2 5
v -24 1.75 7
v -24 1.25 7
v -24 0.5 9
v -24 0 9
v -24 1.75 7
v -24 1.25 7
v -21 0.5 9
v -21 0 9
v -21 1.75 7
v -21 1.25 7
v -21 2 5
v -21 1.5 5
v -21 1.75 7
v -21 1.25 7
v -21.5 -0.75 8.5
v -21 0 9
v -21 1.25 7
v -21.5 0.5 6.75
v -21 1.5 5
v -21.5 0.75 5
v -21 1.25 7
v -21.5 0.5 6.75
v -23.5 -0.75 8.5
v -21.5 -0.75 8.5
v -21.5 0.5 6.75
v -23.5 0.5 6.75
v -21.5 0.75 5
v -23.5 0.75 5
v -21.5 0.5 6.75
v -23.5 0.5 6.75
v -23.5 -0.75 8.5
v -24 0 9
v -23.5 0.5 6.75
v -24 1.25 7
v -23.5 0.75 5
v -24 1.5 5
v -23.5 0.5 6.75
v -24 1.25 7
v -21 2 5
v -24 2 5
v -24 0.75 3
v -21 0.75 3
v -24 0.25 1
v -21 0.25 1
v -24 0.75 3
v -21 0.75 3
v -24 0.25 1
v -24 -0.25 1
v -24 0.75 3
v -24 0.25 3
v -24 2 5
v -24 1.5 5
v -24 0.75 3
v -24 0.25 3
v -21 1.5 5
v -21 2 5
v -21 0.75 3
v -21 0.25 3
v -21 0.25 1
v -21 -0.25 1
v -21 0.75 3
v -21 0.25 3
v -21.5 0.75 5
v -21 1.5 5
v -21 0.25 3
v -21.5 -0.5 3.25
v -21.5 -1 1.5
v -21 -0.25 1
v -21 0.25 3
v -21.5 -0.5 3.25
v -23.5 0.75 5
v -21.5 0.75 5
v -21.5 -0.5 3.25
v -23.5 -0.5 3.25
v -23.5 -1 1.5
v -21.5 -1 1.5
v -21.5 -0.5 3.25
v -23.5 -0.5 3.25
v -24 1.5 5
v -23.5 0.75 5
v -23.5 -0.5 3.25
v -24 0.25 3
v -23.5 -1 1.5
v -24 -0.25 1
v -23.5 -0.5 3.25
v -24 0.25 3

vn 0 0 1
vn 0 0 1
vn 0 0 1
vn 0 0 1
vn 0 0 -1
vn 0 0 -1
vn 0 0 -1
vn 0 0 -1
vn 0 -0.7071067 -0.7071067
vn 0 -0.7071068 -0.7071068
vn 0 -0.7071068 -0.7071068
vn 0 -0.7071068 -0.7071068
vn 0 -0.7071067 0.7071067
vn 0 -0.7071068 0.7071068
vn 0 -0.7071068 0.7071068
vn 0 -0.7071068 0.7071068
vn 1 0 0
vn 1 0 0
vn 1 0 0
vn 1 0 0
vn 0 0.9980526 0.06237829
vn 0 0.9980526 0.06237829
vn 0 0.9980526 0.06237829
vn 0 0.9980526 0.06237829
vn 0.8144212 -0.579144 -0.0361965
vn 0.8169186 -0.5755563 -0.03713267
vn 0.8169186 -0.5755563 -0.03713267
vn 0.819531 -0.5717658 -0.03811772
vn 0 -0.9977851 -0.06651901
vn 0 -0.9977851 -0.06651901
vn 0 -0.9977851 -0.06651901
vn 0 -0.9977851 -0.06651901
vn -0.8169186 -0.5755563 -0.03713267
vn -0.8144212 -0.579144 -0.0361965
vn -0.819531 -0.5717658 -0.03811772
vn -0.8169186 -0.5755563 -0.03713267
vn -1 0 0
vn -1 0 0
vn -1 0 0
vn -1 0 0
vn 0 1 0
vn 0 1 0
vn 0 1 0
vn 0 1 0
vn -1 0 0
vn -1 0 0
vn -1 0 0
vn -1 0 0
vn 1 0 0
vn 1 0 0
vn 1 0 0
vn 1 0 0
vn 0.8320503 -0.5547002 0
vn 0.8320503 -0.5547002 0
vn 0.8320503 -0.5547002 0
vn 0.8320503 -0.5547001 0
vn 0 -1 0
vn 0 -1 0
vn 0 -1 0
vn 0 -1 0
vn -0.8320503 -0.5547002 0
vn -0.8320503 -0.5547002 0
vn -0.8320503 -0.5547001 0
vn -0.8320503 -0.5547002 0
vn 0 0.8479984 0.529999
vn 0 0.8479984 0.529999
vn 0 0.8479984 0.529999
vn 0 0.8479984 0.529999
vn 0 0.9922779 0.1240347
vn 0 0.9922779 0.1240347
vn 0 0.9922779 0.1240347
vn 0 0.9922779 0.1240347
vn -1 0 0
vn -1 0 0
vn -1 0 0
vn -1 0 0
vn -1 0 0
vn -1 0 0
vn -1 0 0
vn -1 0 0
vn 1 0 0
vn 1 0 0
vn 1 0 0
vn 1 0 0
vn 1 0 0
vn 1 0 0
vn 1 0 0
vn 1 0 0
vn 0.8571429 -0.4285714 -0.2857143
vn 0.8743857 -0.4114756 -0.2571723
vn 0.8571429 -0.4285714 -0.2857143
vn 0.8339503 -0.4490502 -0.3207501
vn 0.8300574 -0.5533716 -0.06917145
vn 0.8353977 -0.5448245 -0.07264327
vn 0.8353977 -0.5448245 -0.07264327
vn 0.8411911 -0.5353034 -0.07647192
vn 0 -0.8137335 -0.5812382
vn 0 -0.8137335 -0.5812382
vn 0 -0.8137335 -0.5812382
vn 0 -0.8137335 -0.5812382
vn 0 -0.9899495 -0.1414214
vn 0 -0.9899495 -0.1414214
vn 0 -0.9899495 -0.1414214
vn 0 -0.9899495 -0.1414214
vn -0.8571429 -0.4285714 -0.2857143
vn -0.8743857 -0.4114756 -0.2571723
vn -0.8339503 -0.4490502 -0.3207501
vn -0.8571429 -0.4285714 -0.2857143
vn -0.8353977 -0.5448245 -0.07264327
vn -0.8300574 -0.5533716 -0.06917145
vn -0.8411911 -0.5353034 -0.07647192
vn -0.8353977 -0.5448245 -0.07264327
vn 0 0.8479984 -0.529999
vn 0 0.8479984 -0.529999
vn 0 0.8479984 -0.529999
vn 0 0.8479984 -0.529999
vn 0 0.9701425 -0.2425356
vn 0 0.9701425 -0.2425356
vn 0 0.9701425 -0.2425356
vn 0 0.9701425 -0.2425356
vn -1 0 0
vn -1 0 0
vn -1 0 0
vn -1 0 0
vn -1 0 0
vn -1 0 0
vn -1 0 0
vn -1 0 0
vn 1 0 0
vn 1 0 0
vn 1 0 0
vn 1 0 0
vn 1 0 0
vn 1 0 0
vn 1 0 0
vn 1 0 0
vn 0.8111071 -0.4866642 0.3244428
vn 0.7861462 -0.5240974 0.3275609
vn 0.8111071 -0.4866642 0.3244428
vn 0.8339503 -0.4490502 0.3207501
vn 0.8541623 -0.5024484 0.1339862
vn 0.8616405 -0.492366 0.1230915
vn 0.8541623 -0.5024484 0.1339862
vn 0.8449261 -0.5143028 0.1469437
vn 0 -0.8137335 0.5812382
vn 0 -0.8137335 0.5812382
vn 0 -0.8137335 0.5812382
vn 0 -0.8137335 0.5812382
vn 0 -0.9615239 0.2747211
vn 0 -0.9615239 0.2747211
vn 0 -0.9615239 0.2747211
vn 0 -0.9615239 0.2747211
vn -0.7861462 -0.5240974 0.3275609
vn -0.8111071 -0.4866642 0.3244428
vn -0.8339503 -0.4490502 0.3207501
vn -0.8111071 -0.4866642 0.3244428
vn -0.8541623 -0.5024484 0.1339862
vn -0.8616405 -0.492366 0.1230915
vn -0.8449261 -0.5143028 0.1469437
vn -0.8541623 -0.5024484 0.1339862

vt 3 0
vt 0 0
vt 3 0.5
vt 0 0.5
vt 3 0
vt 0 0
vt 3 0.5
vt 0 0.5
vt 0 1.06066
vt 3 1.06066
vt 0.5 0
vt 2.5 0
vt 0 1.060659
vt 3 1.060659
vt 0.5 0
vt 2.5 0
vt 16 0.75
vt 16 0.25
vt 12 0.5
vt 12 0
vt 3 0
vt 0 0
vt 0 3.997323
vt 3 3.997323
vt 15.99752 1.071159
vt 15.23882 0.1772295
vt 11.99814 0.8962597
vt 11.4894 -1.192093E-07
vt 2 0
vt 0 0
vt 2 3.746737
vt 0 3.746737
vt 0.7586951 0.1772296
vt -4.768372E-07 1.071159
vt 4.508113 0
vt 3.999379 0.8962598
vt 0 0.25
vt 0 0.75
vt 4 0
vt 4 0.5
vt 0 15.99921
vt 3 15.99921
vt 3 11.99941
vt 0 11.99941
vt 16 0.75
vt 16 0.25
vt 12 0.75
vt 12 0.25
vt 0 0.25
vt 0 0.75
vt 4 0.75
vt 4 0.25
vt 0.7410717 0.3123747
vt 0 1.220285
vt 3.999379 1.183003
vt 4.490489 0.2774234
vt 0 14.49896
vt 2 14.49896
vt 2 10.74923
vt 0 10.74923
vt 15.99752 1.220285
vt 15.25644 0.3123748
vt 11.50703 0.2774235
vt 11.99814 1.183004
vt 0 11.99941
vt 3 11.99941
vt 3 10.01191
vt 0 10.01191
vt 3 8.014488
vt 0 8.014488
vt 3 10.01191
vt 0 10.01191
vt 8 1.75
vt 8 2.25
vt 10 2
vt 10 1.5
vt 12 0.75
vt 12 0.25
vt 10 2
vt 10 1.5
vt 4 0.75
vt 4 0.25
vt 6 2
vt 6 1.5
vt 8 2.25
vt 8 1.75
vt 6 2
vt 6 1.5
vt 4.490489 0.2774234
vt 3.999379 1.183003
vt 5.999068 2.225267
vt 6.240217 1.322017
vt 7.998758 2.418808
vt 7.989946 1.517888
vt 5.999068 2.225267
vt 6.240217 1.322017
vt 0 10.74923
vt 2 10.74923
vt 2 9.014322
vt 0 9.014322
vt 2 7.267441
vt 0 7.267441
vt 2 9.014322
vt 0 9.014322
vt 11.50703 0.2774235
vt 11.99814 1.183004
vt 9.757298 1.322018
vt 9.998447 2.225267
vt 8.00757 1.517888
vt 7.998757 2.418808
vt 9.757298 1.322018
vt 9.998447 2.225267
vt 0 8.014488
vt 3 8.014488
vt 3 6.002185
vt 0 6.002185
vt 3 3.997323
vt 0 3.997323
vt 3 6.002185
vt 0 6.002185
vt 4 0.5
vt 4 0
vt 6 1
vt 6 0.5
vt 8 2.25
vt 8 1.75
vt 6 1
vt 6 0.5
vt 8 1.75
vt 8 2.25
vt 10 1
vt 10 0.5
vt 12 0.5
vt 12 0
vt 10 1
vt 10 0.5
vt 7.989946 1.517888
vt 7.998758 2.418808
vt 9.998447 1.339262
vt 9.739674 0.4406724
vt 11.4894 -1.192093E-07
vt 11.99814 0.8962597
vt 9.998447 1.339262
vt 9.739674 0.4406724
vt 0 7.267441
vt 2 7.267441
vt 2 5.502599
vt 0 5.502599
vt 0 3.746737
vt 2 3.746737
vt 2 5.502599
vt 0 5.502599
vt 7.998757 2.418808
vt 8.00757 1.517888
vt 6.257842 0.4406725
vt 5.999068 1.339262
vt 4.508113 0
vt 3.999379 0.8962598
vt 6.257842 0.4406725
vt 5.999068 1.339262

usemtl Default_Prototype
usemap Default_Prototype
f 2/2/2 1/1/1 3/3/3
f 4/4/4 2/2/2 3/3/3
f 6/6/6 5/5/5 7/7/7
f 8/8/8 6/6/6 7/7/7
f 10/10/10 9/9/9 11/11/11
f 12/12/12 10/10/10 11/11/11
f 14/14/14 13/13/13 15/15/15
f 16/16/16 14/14/14 15/15/15
f 18/18/18 17/17/17 20/20/20
f 17/17/17 19/19/19 20/20/20
f 22/22/22 21/21/21 24/24/24
f 23/23/23 22/22/22 24/24/24
f 26/26/26 25/25/25 27/27/27
f 26/26/26 27/27/27 28/28/28
f 30/30/30 29/29/29 32/32/32
f 29/29/29 31/31/31 32/32/32
f 34/34/34 33/33/33 36/36/36
f 33/33/33 35/35/35 36/36/36
f 38/38/38 37/37/37 39/39/39
f 38/38/38 39/39/39 40/40/40
f 42/42/42 41/41/41 44/44/44
f 43/43/43 42/42/42 44/44/44
f 46/46/46 45/45/45 48/48/48
f 45/45/45 47/47/47 48/48/48
f 50/50/50 49/49/49 52/52/52
f 51/51/51 50/50/50 52/52/52
f 54/54/54 53/53/53 55/55/55
f 55/55/55 53/53/53 56/56/56
f 58/58/58 57/57/57 60/60/60
f 59/59/59 58/58/58 60/60/60
f 62/62/62 61/61/61 64/64/64
f 63/63/63 62/62/62 64/64/64
f 66/66/66 65/65/65 68/68/68
f 67/67/67 66/66/66 68/68/68
f 70/70/70 69/69/69 72/72/72
f 69/69/69 71/71/71 72/72/72
f 74/74/74 73/73/73 75/75/75
f 75/75/75 73/73/73 76/76/76
f 78/78/78 77/77/77 80/80/80
f 77/77/77 79/79/79 80/80/80
f 81/81/81 82/82/82 84/84/84
f 83/83/83 81/81/81 84/84/84
f 86/86/86 85/85/85 87/87/87
f 86/86/86 87/87/87 88/88/88
f 90/90/90 89/89/89 91/91/91
f 91/91/91 89/89/89 92/92/92
f 94/94/94 93/93/93 95/95/95
f 94/94/94 95/95/95 96/96/96
f 98/98/98 97/97/97 99/99/99
f 99/99/99 97/97/97 100/100/100
f 102/102/102 101/101/101 104/104/104
f 101/101/101 103/103/103 104/104/104
f 105/105/105 106/106/106 108/108/108
f 107/107/107 105/105/105 108/108/108
f 110/110/110 109/109/109 112/112/112
f 109/109/109 111/111/111 112/112/112
f 114/114/114 113/113/113 116/116/116
f 115/115/115 114/114/114 116/116/116
f 118/118/118 117/117/117 120/120/120
f 117/117/117 119/119/119 120/120/120
f 121/121/121 122/122/122 124/124/124
f 123/123/123 121/121/121 124/124/124
f 126/126/126 125/125/125 127/127/127
f 126/126/126 127/127/127 128/128/128
f 130/130/130 129/129/129 131/131/131
f 131/131/131 129/129/129 132/132/132
f 134/134/134 133/133/133 136/136/136
f 133/133/133 135/135/135 136/136/136
f 138/138/138 137/137/137 139/139/139
f 139/139/139 137/137/137 140/140/140
f 141/141/141 142/142/142 143/143/143
f 141/141/141 143/143/143 144/144/144
f 146/146/146 145/145/145 148/148/148
f 147/147/147 146/146/146 148/148/148
f 149/149/149 150/150/150 152/152/152
f 150/150/150 151/151/151 152/152/152
f 154/154/154 153/153/153 156/156/156
f 155/155/155 154/154/154 156/156/156
f 158/158/158 157/157/157 160/160/160
f 157/157/157 159/159/159 160/160/160
